<?xml version="1.0" standalone="no"?>
<!DOCTYPE svg PUBLIC "-//W3C//DTD SVG 1.1//EN" "http://www.w3.org/Graphics/SVG/1.1/DTD/svg11.dtd" >
<svg xmlns="http://www.w3.org/2000/svg" xmlns:xlink="http://www.w3.org/1999/xlink" version="1.1">
<metadata></metadata>
<defs>
<font id="attoregular" horiz-adv-x="1232" >
<font-face units-per-em="2048" ascent="1536" descent="-512" />
<missing-glyph horiz-adv-x="630" />
<glyph horiz-adv-x="0" />
<glyph unicode="&#xd;" horiz-adv-x="630" />
<glyph horiz-adv-x="0" />
<glyph horiz-adv-x="0" />
<glyph unicode=" "  horiz-adv-x="630" />
<glyph unicode="&#x09;" horiz-adv-x="630" />
<glyph unicode="&#xa0;" horiz-adv-x="630" />
<glyph unicode="!" horiz-adv-x="567" d="M106 90q0 47 35 81t82 34t81 -34t34 -81t-34 -81t-81 -34t-82 34t-35 81zM127 1436h182l-33 -975h-116z" />
<glyph unicode="&#x22;" horiz-adv-x="710" d="M129 938v504h125v-504h-125zM449 938v504h126v-504h-126z" />
<glyph unicode="#" horiz-adv-x="1359" d="M86 469l6 106h283l49 302h-270q2 27 3 53t5 53h280l78 444h127l-74 -444h312l73 444h127l-73 -444h270l-8 -106h-281q-14 -76 -25.5 -151t-23.5 -151h273l-9 -106h-284l-78 -469h-129q20 117 39.5 234.5t38.5 234.5h-314l-82 -469h-125l82 469h-270zM500 575h313l51 302 h-311z" />
<glyph unicode="$" horiz-adv-x="1236" d="M106 399h154q4 -121 88 -193.5t207 -92.5v542q-53 27 -125 56.5t-137.5 73.5t-111.5 106.5t-46 152.5q0 74 36 137.5t95.5 111.5t134 77t154.5 35v133h125v-133q78 -4 152.5 -27.5t134 -66.5t98.5 -106.5t49 -145.5h-153q-6 51 -33 90t-65 64.5t-86 41t-97 21.5v-516 q84 -29 167 -60.5t148.5 -78t105.5 -108.5t40 -153q0 -96 -41 -166.5t-106.5 -117.5t-147.5 -70.5t-166 -28.5v-190h-125v193q-88 10 -168 42.5t-142.5 87t-99 127t-39.5 162.5zM289 1049q0 -47 22.5 -84t59.5 -66t85 -51.5t99 -40.5v467q-53 -6 -101 -25.5t-85 -48.5 t-58.5 -67.5t-21.5 -83.5zM680 109q59 6 114.5 26.5t98.5 52t68.5 75.5t25.5 95q0 49 -27.5 87t-72.5 68t-99.5 53.5t-107.5 43.5v-501z" />
<glyph unicode="%" horiz-adv-x="2099" d="M219 1098q0 72 25.5 136t71.5 112.5t111.5 77t145.5 28.5t144.5 -28.5t110.5 -77t71 -113t25 -135.5q0 -72 -25 -135.5t-71 -111.5t-110.5 -77t-144.5 -29t-145.5 29t-111.5 77t-71.5 111.5t-25.5 135.5zM344 1098q0 -47 13.5 -90t42 -77t71.5 -54.5t102 -20.5 q57 0 100.5 20.5t71 54.5t41 77t13.5 90t-13.5 91t-41 77.5t-71 54t-100.5 20.5q-59 0 -102 -20.5t-71.5 -54t-42 -77.5t-13.5 -91zM522 0q223 350 453.5 716.5t451.5 717.5h140q-221 -350 -451.5 -717t-453.5 -717h-140zM1182 330q0 72 24.5 136t70.5 112.5t110.5 77 t144.5 28.5q82 0 147.5 -28.5t111.5 -77t70.5 -113t24.5 -135.5q0 -72 -24.5 -135.5t-70.5 -111.5t-111.5 -75.5t-147.5 -27.5q-80 0 -144.5 27.5t-110.5 75.5t-70.5 111.5t-24.5 135.5zM1307 330q0 -47 13 -90t41 -77t71 -54.5t100 -20.5q59 0 102 20.5t72 54.5t42 77 t13 90t-13 91t-42 77.5t-72 54t-102 20.5q-57 0 -100 -20.5t-71 -54t-41 -77.5t-13 -91z" />
<glyph unicode="&#x26;" horiz-adv-x="1570" d="M123 365q0 74 37 138t95 120.5t128.5 106.5t138.5 95q-45 63 -84 115.5t-66.5 96.5t-43 83t-15.5 76q0 82 35 135t90.5 85t127 45.5t145.5 13.5q70 0 127 -21.5t99 -58.5t65.5 -88.5t23.5 -110.5q0 -63 -26.5 -118.5t-70.5 -103.5t-99.5 -92t-110.5 -87 q100 -96 204.5 -196.5t221.5 -219.5q47 80 71.5 174t24.5 190h152q-6 -61 -15.5 -123.5t-26 -122t-42 -116.5t-64.5 -109l291 -272h-207q-45 41 -88 80t-86 82q-96 -92 -212 -145.5t-267 -53.5q-127 0 -228.5 33t-174 88t-111.5 128t-39 153zM279 373q0 -68 32.5 -119 t87 -85t124 -51.5t143.5 -17.5q127 0 220 43t177 121l-461 449q-47 -35 -103.5 -75t-105.5 -83t-81.5 -89t-32.5 -93zM469 1198q0 -63 51.5 -136t112.5 -165q41 35 83 69.5t75.5 70.5t55 75t21.5 82q0 39 -16 67.5t-44 47t-63.5 28t-74.5 9.5t-76 -9.5t-64.5 -28t-44 -46 t-16.5 -64.5z" />
<glyph unicode="'" horiz-adv-x="532" d="M211 938v504h125v-504h-125z" />
<glyph unicode="(" horiz-adv-x="620" d="M156 659q0 121 21.5 241t58 234.5t87 225t107.5 215.5h113q-104 -225 -160.5 -454.5t-56.5 -461.5q0 -236 59 -467t158 -444h-117q-55 100 -104.5 209t-86 224.5t-58 235.5t-21.5 242z" />
<glyph unicode=")" horiz-adv-x="608" d="M78 -252q96 213 156.5 444.5t60.5 466.5q0 231 -56.5 461t-160.5 455h112q57 -104 107.5 -215t87.5 -225.5t58.5 -234.5t21.5 -241q0 -123 -21.5 -242.5t-59.5 -235t-87 -224.5t-104 -209h-115z" />
<glyph unicode="*" horiz-adv-x="1171" d="M127 1149l41 125l287 -113l-19 305h139l-14 -303l281 111l49 -129l-305 -82l202 -232l-104 -79l-176 247l-182 -247l-105 79l205 232z" />
<glyph unicode="+" horiz-adv-x="1421" d="M164 623v116h487v447h129v-447h490v-116h-490v-447h-129v447h-487z" />
<glyph unicode="," horiz-adv-x="559" d="M141 -199q33 14 58 39q23 20 41 54t22 83q-43 6 -71.5 38t-28.5 75q0 47 34.5 81t82.5 34q57 0 89.5 -44t18.5 -110q-6 -31 -16.5 -74t-33 -88t-61 -88t-102.5 -71z" />
<glyph unicode="-" horiz-adv-x="651" d="M61 494v139h539v-139h-539z" />
<glyph unicode="." horiz-adv-x="552" d="M162 90q0 47 34.5 81t82.5 34q47 0 80.5 -34t33.5 -81t-33.5 -81t-80.5 -34t-82 34t-35 81z" />
<glyph unicode="/" horiz-adv-x="630" d="M-33 0q68 195 136.5 370t138 347t139.5 347t139 370h144q-70 -195 -139.5 -370t-139.5 -347t-138.5 -347t-137.5 -370h-142z" />
<glyph unicode="0" d="M104 715q0 154 32 287t95.5 232t158.5 156.5t222 57.5q129 0 225.5 -57.5t160 -156.5t95 -232.5t31.5 -286.5q0 -152 -29.5 -285t-93 -231.5t-160 -155.5t-229.5 -57q-135 0 -231 57t-157.5 155.5t-90.5 231.5t-29 285zM260 715q0 -129 18.5 -241t60.5 -194.5t108.5 -130 t164.5 -47.5q90 0 157 47.5t111 130t65.5 194.5t21.5 241t-20.5 240.5t-63.5 194.5t-111 131t-160 48q-98 0 -164.5 -48t-108.5 -131t-60.5 -194.5t-18.5 -240.5z" />
<glyph unicode="1" horiz-adv-x="1050" d="M246 967v141q76 6 140.5 41t115.5 83t90 101t63 99h136v-1432h-140v1202q-86 -115 -185 -168t-220 -67z" />
<glyph unicode="2" d="M115 0v137q45 88 120.5 171t163.5 162t179.5 155.5t165 149.5t119.5 143.5t46 140.5q0 137 -71.5 197.5t-231.5 60.5q-84 0 -144.5 -23.5t-99 -61.5t-58 -88t-19.5 -102h-162q4 94 42 171t102.5 131.5t151.5 83t189 28.5q100 0 184.5 -28.5t145.5 -80t95 -121t34 -149.5 q0 -96 -44 -183t-113.5 -167t-156.5 -153.5t-174 -146.5t-164 -144.5t-128 -145.5h792v-137h-964z" />
<glyph unicode="3" d="M80 401h160q6 -80 37.5 -137t81 -93t109.5 -52.5t124 -16.5q70 0 134.5 19.5t113.5 55.5t78.5 89t29.5 121q0 76 -29.5 133.5t-81 96t-119 58t-143.5 19.5q-18 0 -36.5 -1t-34.5 -1v131q16 -2 33.5 -2h33.5q74 0 136.5 18.5t107.5 53.5t69.5 82t24.5 106t-24.5 105.5 t-67.5 79t-101.5 49t-123.5 16.5q-72 0 -129 -21.5t-98 -58.5t-66 -85t-31 -103h-159q4 80 42.5 151.5t101 124t146.5 83t181 30.5q98 0 186 -24.5t155.5 -71.5t106.5 -114.5t39 -154.5q0 -55 -21.5 -106t-59.5 -94t-90 -76t-112 -53q141 -39 231.5 -135.5t90.5 -239.5 q0 -98 -44 -173t-116 -125t-164 -75.5t-190 -25.5q-102 0 -191.5 27.5t-157 79.5t-110.5 130t-53 180z" />
<glyph unicode="4" d="M57 338v158l674 936h182v-977h238v-117h-238v-338h-145v338h-711zM184 455h584v802z" />
<glyph unicode="5" d="M123 346h160q8 -59 36.5 -105t72.5 -77t100.5 -47.5t117.5 -16.5q84 0 150.5 28t112 75t69 112.5t23.5 139.5q0 76 -25 143.5t-70 119.5t-110.5 82.5t-145.5 30.5q-100 0 -185 -40.5t-120 -114.5h-149l57 758h827v-121h-694q-10 -117 -18 -231.5t-19 -235.5q76 66 162 88 t172 22q109 0 197 -43t150.5 -113.5t96 -160.5t33.5 -186q0 -92 -33.5 -178.5t-98 -151t-159 -103t-215.5 -38.5q-94 0 -180 21.5t-152.5 66.5t-109.5 113.5t-53 162.5z" />
<glyph unicode="6" d="M111 623q0 178 22.5 329.5t82.5 262t165.5 173t271.5 62.5q94 0 175 -25.5t141.5 -71.5t95.5 -107.5t39 -135.5h-154q-4 45 -28.5 85t-62.5 70.5t-89 48t-111 17.5q-131 0 -209.5 -66.5t-121.5 -165t-58.5 -212t-15.5 -207.5q29 61 73 103t97 68t111.5 38t117.5 12 q113 0 200 -36t147.5 -98t92 -148.5t31.5 -184.5q0 -94 -32.5 -177t-94 -145.5t-150.5 -98.5t-202 -36q-147 0 -249.5 45.5t-165 130.5t-91 203.5t-28.5 266.5zM293 432q0 -72 25.5 -132t71.5 -106.5t107.5 -72t133.5 -25.5q78 0 140.5 25.5t105.5 72t66.5 106.5t23.5 132 q0 68 -19.5 129.5t-59.5 108.5t-100.5 75.5t-140.5 28.5q-88 0 -154.5 -29.5t-110.5 -78t-66.5 -109.5t-22.5 -125z" />
<glyph unicode="7" d="M109 1313v121h991v-115q-90 -145 -173 -298t-159 -315.5t-144.5 -337.5t-129.5 -368h-168q123 336 271 674t341 639h-829z" />
<glyph unicode="8" d="M102 403q0 119 82.5 214.5t221.5 142.5q-55 20 -105.5 51t-88.5 72t-60.5 90t-22.5 104q0 82 41 150.5t108.5 119t154.5 78t179 27.5t180.5 -27.5t156 -78t108.5 -119t41 -150.5q0 -104 -77 -189t-196 -128q137 -47 219 -141.5t82 -215.5q0 -92 -43 -168.5t-114.5 -131 t-164.5 -85t-192 -30.5q-98 0 -190 30.5t-163 85t-114 131t-43 168.5zM258 403q0 -66 28.5 -119t78 -91.5t113 -59t134.5 -20.5q70 0 134.5 20.5t113.5 59t78 92t29 118.5q0 63 -29 116.5t-78 92.5t-113.5 59.5t-134.5 20.5q-72 0 -135 -20.5t-112.5 -59.5t-78 -92.5 t-28.5 -116.5zM279 1077q0 -55 25.5 -100t69.5 -79t105.5 -52.5t132.5 -18.5q72 0 133.5 18.5t106.5 52.5t70.5 79t25.5 100q0 57 -28.5 103.5t-75.5 79t-107.5 51t-124.5 18.5q-63 0 -122.5 -18.5t-106.5 -51t-75.5 -79t-28.5 -103.5z" />
<glyph unicode="9" d="M102 999q0 94 34 176t96.5 143.5t152.5 96.5t201 35q152 0 253 -47t162.5 -133t88 -207t26.5 -270q0 -182 -25.5 -332t-90 -257.5t-172 -167t-271.5 -59.5q-102 0 -181 28t-134.5 74t-89 108.5t-41.5 134.5h153q10 -98 97.5 -162t222.5 -64q84 0 144 33t103 86t70 123 t42 143.5t21.5 144t6.5 130.5q-66 -113 -174.5 -164t-223.5 -51q-104 0 -191 34.5t-149.5 96t-96.5 145.5t-34 182zM258 995q0 -68 22.5 -127t65.5 -104t102.5 -70.5t133.5 -25.5q80 0 145.5 28.5t111.5 74.5t71.5 106.5t25.5 121.5q0 72 -26.5 132.5t-74 105.5t-110.5 69.5 t-137 24.5q-80 0 -141.5 -26.5t-103.5 -71.5t-63.5 -106.5t-21.5 -131.5z" />
<glyph unicode=":" horiz-adv-x="485" d="M113 98q0 47 34.5 81t81.5 34t81 -34t34 -81t-34 -80.5t-81 -33.5t-81.5 33.5t-34.5 80.5zM113 930q0 47 34.5 80.5t81.5 33.5t81 -33.5t34 -80.5t-34 -81t-81 -34t-81.5 34t-34.5 81z" />
<glyph unicode=";" horiz-adv-x="505" d="M104 -207q33 14 58 39q23 20 41 54t22 83q-43 6 -71.5 38t-28.5 75q0 47 35 81t82 34q57 0 90 -44t18 -110q-6 -31 -16 -74t-32.5 -88t-61.5 -88t-103 -72zM127 930q0 47 35 80.5t82 33.5t80.5 -33.5t33.5 -80.5t-33.5 -81t-80.5 -34t-82 34t-35 81z" />
<glyph unicode="&#x3c;" horiz-adv-x="1392" d="M164 494v110l1077 426v-133q-229 -88 -456.5 -174t-456.5 -174q229 -88 456.5 -177t456.5 -177v-134q-272 109 -539.5 216.5t-537.5 216.5z" />
<glyph unicode="=" horiz-adv-x="1421" d="M164 311v119h1106v-119h-1106zM164 733v115h1106v-115h-1106z" />
<glyph unicode="&#x3e;" horiz-adv-x="1392" d="M164 68v133l913 346l-913 356v133q270 -109 537.5 -216t539.5 -216v-110q-272 -106 -539.5 -212t-537.5 -214z" />
<glyph unicode="?" horiz-adv-x="1110" d="M129 1073q0 94 35 170t91 129t129 81t151 28q96 0 176 -29t136 -78t87 -116.5t31 -147.5q0 -66 -20.5 -118t-54.5 -97t-76 -86t-87 -84q-31 -31 -59.5 -56.5t-50 -51t-35 -54t-13.5 -65.5v-109h-153v121q0 57 29.5 107.5t74.5 95.5t97.5 89t96.5 90t73.5 99t29.5 117 q0 115 -65.5 179.5t-192.5 72.5q-43 0 -94 -16.5t-95 -51.5t-73 -89t-29 -130h-139zM381 90q0 47 35 81t82 34t80.5 -34t33.5 -81t-33.5 -81t-80.5 -34t-82 34t-35 81z" />
<glyph unicode="@" horiz-adv-x="1708" d="M102 688q0 170 63.5 311.5t172 241.5t253 155.5t304.5 55.5q147 0 277.5 -45t227.5 -126t154.5 -193.5t57.5 -245.5q0 -129 -45 -233.5t-116 -178.5t-159 -112.5t-176 -38.5q-57 0 -105 30.5t-61 81.5q-47 -57 -111.5 -83.5t-136.5 -26.5q-68 0 -122 25.5t-91.5 66.5 t-58 95t-20.5 112q0 94 35.5 192t102 178t159 130t204.5 50q41 0 78 -13t67.5 -34.5t53.5 -47t37 -48.5q10 29 17 55.5t18 53.5h137q-51 -156 -87 -264.5t-60.5 -180t-39 -113.5t-21.5 -64.5t-9 -31t-2 -14.5q0 -16 12 -24.5t43 -8.5q51 0 109.5 25.5t106.5 80t80 137.5 t32 200q0 113 -47 205t-128 158.5t-186.5 102t-222.5 35.5q-145 0 -267 -50t-211 -137t-139.5 -207t-50.5 -257q0 -133 52.5 -244.5t142.5 -191.5t210 -124t257 -44q164 0 306 64.5t233 181.5h127q-45 -88 -117 -156t-162 -113t-191.5 -67.5t-205.5 -22.5 q-162 0 -304.5 54.5t-248 149.5t-167 227.5t-61.5 285.5zM563 596q0 -37 10.5 -73t31 -63.5t52 -45t72.5 -17.5q94 0 172 70t121 174q25 90 36 133t11 70q0 72 -44 118t-110 46q-76 0 -140 -41t-111.5 -102.5t-74 -134.5t-26.5 -134z" />
<glyph unicode="A" horiz-adv-x="1435" d="M10 0l611 1436h186l610 -1436h-162l-170 422h-749l-168 -422h-158zM385 551h647l-319 752z" />
<glyph unicode="B" horiz-adv-x="1431" d="M193 0v1436h579q92 0 172 -26t139.5 -72t93 -109.5t33.5 -136.5q0 -111 -75.5 -197t-198.5 -137q168 -39 258 -135.5t90 -225.5q0 -80 -28.5 -151.5t-87 -125.5t-145.5 -87t-204 -33h-626zM342 131h379q90 0 165 15.5t128 48t82.5 86t29.5 127.5q0 70 -34.5 123t-99 88.5 t-153.5 54t-196 18.5h-301v-561zM342 821h365q68 0 131 17.5t112 50.5t78 80t29 104t-28 100.5t-75 72t-109.5 44t-133.5 15.5h-369v-484z" />
<glyph unicode="C" horiz-adv-x="1503" d="M135 731q0 143 42 277.5t127 238t214 166t303 62.5q111 0 208 -30t172 -85t124 -134t66 -177h-162q-16 76 -53 131t-90.5 92t-121 54t-143.5 17q-141 0 -240.5 -51t-164 -137t-94 -196.5t-29.5 -229.5q0 -145 31.5 -263t98 -201t166 -128t234.5 -45q76 0 145.5 27.5 t125 75t94.5 112t55 135.5h158q-18 -104 -70.5 -192t-129.5 -151.5t-173 -99.5t-205 -36q-174 0 -303 55.5t-215 156.5t-128 242.5t-42 313.5z" />
<glyph unicode="D" horiz-adv-x="1552" d="M178 0v1436h477q86 0 164 -6q143 -10 256 -66.5t190.5 -151t118.5 -220.5t41 -273q0 -162 -53 -294t-152.5 -226.5t-241.5 -146.5t-323 -52h-477zM328 131h329q305 0 457 155.5t152 430.5q0 154 -48.5 264.5t-135.5 183t-212 106.5t-278 34h-264v-1174z" />
<glyph unicode="E" horiz-adv-x="1331" d="M195 0v1436h972v-131h-823v-498h786v-131h-786v-545h860v-131h-1009z" />
<glyph unicode="F" horiz-adv-x="1226" d="M184 0v1436h932v-131h-782v-494h729v-133h-729v-678h-150z" />
<glyph unicode="G" horiz-adv-x="1593" d="M135 731q0 143 42 277.5t127 238t214 166t303 62.5q111 0 208 -30t172 -85t124 -134t66 -177h-162q-16 76 -53 131t-90.5 92t-121 54t-143.5 17q-141 0 -240.5 -51t-164 -137t-94 -196.5t-29.5 -229.5q0 -145 31.5 -263t98 -201t166 -128t234.5 -45q72 0 149 32 t140.5 96.5t104 160.5t40.5 225v6h-475v123h619v-735h-98l-41 279q-18 -66 -64.5 -123.5t-107 -100.5t-130 -67.5t-137.5 -24.5q-174 0 -303 55.5t-215 156.5t-128 242.5t-42 313.5z" />
<glyph unicode="H" horiz-adv-x="1527" d="M190 0v1436h150v-627h858v627h152v-1436h-152v680h-858v-680h-150z" />
<glyph unicode="I" horiz-adv-x="598" d="M229 0v1438h152v-1438h-152z" />
<glyph unicode="J" horiz-adv-x="1089" d="M61 442h148q0 -80 22.5 -145.5t62.5 -111.5t95 -70.5t119 -24.5q63 0 114.5 27.5t87 78t55 120t19.5 155.5v963h146v-967q0 -98 -20.5 -190.5t-72 -162t-139.5 -111.5t-223 -42q-92 0 -168 35t-130 98.5t-85 151.5t-31 196z" />
<glyph unicode="K" horiz-adv-x="1372" d="M201 0v1436h149l2 -664l705 664h221q-172 -150 -328.5 -306.5t-331.5 -306.5l717 -823h-198q-86 94 -167 182t-161 176t-161 176.5t-167 184.5l-131 -119v-600h-149z" />
<glyph unicode="L" horiz-adv-x="1208" d="M193 0v1436h149v-1305h793v-131h-942z" />
<glyph unicode="M" horiz-adv-x="1939" d="M188 0v1436h224q141 -311 280 -616.5t281 -616.5l575 1233h217v-1436h-151v1229h-4l-559 -1229h-146l-565 1227h-2v-1227h-150z" />
<glyph unicode="N" horiz-adv-x="1527" d="M178 0v1436h184l852 -1250v1250h148v-1436h-195q-211 311 -420.5 620.5t-418.5 620.5h-4v-1241h-146z" />
<glyph unicode="O" horiz-adv-x="1683" d="M143 717q0 166 53.5 304t148.5 237.5t223 154.5t280 55q160 0 289 -55t221 -154.5t142 -237.5t50 -304t-49 -304.5t-140 -237.5t-221 -154.5t-292 -55.5q-160 0 -290 55.5t-222 154.5t-142.5 237.5t-50.5 304.5zM293 717q0 -137 40 -251t112.5 -197t175 -129t227.5 -46 q119 0 220 46t175 129t116 197t42 251q0 135 -39 249.5t-110.5 197.5t-174 129t-229.5 46q-125 0 -227.5 -46t-175 -129t-112.5 -197.5t-40 -249.5z" />
<glyph unicode="P" horiz-adv-x="1325" d="M193 0v1436h395h57q20 1 40.5 1t40.5 -1q40 -2 81 -4q94 -4 174 -37t137.5 -87.5t90 -126t32.5 -153.5q0 -84 -32.5 -156.5t-91 -126t-137.5 -86t-173 -36.5q-57 -4 -112.5 -4.5t-112.5 -0.5h-244v-618h-145zM338 748h377q74 0 140.5 18t116.5 55t80.5 89.5t30.5 119.5 q0 68 -29.5 119t-79.5 86t-118 52.5t-141 17.5h-377v-557z" />
<glyph unicode="Q" horiz-adv-x="1691" d="M143 717q0 166 53.5 304t148.5 237.5t223 154.5t280 55q160 0 289 -55t221 -154.5t142 -237.5t50 -304q0 -201 -69.5 -357.5t-196.5 -255.5l143 -143l-92 -92l-166 166q-145 -70 -321 -70q-160 0 -290 55.5t-222 154.5t-142.5 237.5t-50.5 304.5zM293 717q0 -137 40 -251 t112.5 -197t175 -129t227.5 -46q115 0 217 45l-195 195l93 92l217 -219q104 84 162.5 214t58.5 296q0 135 -39 249.5t-110.5 197.5t-174 129t-229.5 46q-125 0 -227.5 -46t-175 -129t-112.5 -197.5t-40 -249.5z" />
<glyph unicode="R" horiz-adv-x="1431" d="M186 0v1436h607q96 -4 177 -37t139 -86t91 -124t33 -151q0 -86 -36 -147.5t-91 -101t-121.5 -61t-130.5 -28.5q72 -14 120 -38.5t83 -62.5t61.5 -90t52.5 -124q10 -29 36 -85t53.5 -116.5t54 -113t41.5 -70.5h-182l-150 350q-25 53 -52.5 104.5t-63.5 92.5t-86 66.5 t-122 25.5h-364v-639h-150zM336 768h295h94t96 4q53 2 101.5 21.5t85 54.5t59.5 84t23 108q0 61 -27 109.5t-69 81.5t-96 51t-110 21q-45 2 -65.5 2h-58.5h-328v-537z" />
<glyph unicode="S" horiz-adv-x="1351" d="M129 434h158q4 -80 36.5 -142.5t86 -106.5t125 -67.5t155.5 -23.5q70 0 141.5 17.5t128 54.5t92 92t35.5 131q0 70 -39.5 115t-104 76.5t-146.5 53t-169 46.5t-169 54.5t-146.5 74.5t-104.5 112.5t-40 165.5q0 92 42 163t112.5 120t163 74.5t190.5 25.5 q106 0 200.5 -31.5t166 -86t113.5 -129t42 -160.5h-158q-4 70 -34.5 122t-79.5 87t-110.5 52t-125.5 17q-63 0 -128.5 -14t-120 -45t-89.5 -78t-35 -110q0 -74 39 -123t103.5 -83t147.5 -57.5t169 -47t168 -52.5t146.5 -72t104.5 -107.5t40 -158.5q0 -109 -48 -189.5 t-130 -134t-190.5 -79t-229.5 -25.5q-96 0 -187.5 40t-162 105.5t-114.5 149.5t-44 174z" />
<glyph unicode="T" horiz-adv-x="1288" d="M63 1305v131h1172v-131h-508v-1305h-149v1305h-515z" />
<glyph unicode="U" horiz-adv-x="1519" d="M188 489v949h150v-955q2 -92 35 -163.5t90 -123t133 -78t166 -26.5q92 0 170 25.5t135 75t91 122t36 164.5v959h152v-953q0 -121 -42 -218t-119 -164.5t-183.5 -103.5t-237.5 -36t-236.5 36t-181.5 103.5t-117 165t-41 221.5z" />
<glyph unicode="V" horiz-adv-x="1316" d="M8 1436h164q123 -317 245 -630.5t245 -631.5h2l485 1262h154l-555 -1436h-177q-141 362 -281 717.5t-282 718.5z" />
<glyph unicode="W" horiz-adv-x="2101" d="M16 1436h156l350 -1229l4 16q109 305 218.5 606t218.5 607h167l451 -1221l352 1221h150q-104 -362 -205.5 -718t-202.5 -718h-188l-440 1233h-3l-432 -1233h-192z" />
<glyph unicode="X" horiz-adv-x="1304" d="M14 0l541 727l-518 709h192l430 -590l439 590h174l-527 -711l543 -725h-188l-457 604l-455 -604h-174z" />
<glyph unicode="Y" horiz-adv-x="1320" d="M8 1436h187l475 -715l471 715h166l-572 -844v-592h-151v592z" />
<glyph unicode="Z" horiz-adv-x="1280" d="M102 0v139l916 1166h-916v131h1088v-158l-914 -1147h914v-131h-1088z" />
<glyph unicode="[" horiz-adv-x="575" d="M168 -256v1800h326v-100h-181v-1600h181v-100h-326z" />
<glyph unicode="\" horiz-adv-x="620" d="M-63 1436h135l616 -1436h-139q-78 186 -155 363.5t-153.5 353.5t-152.5 353t-151 366z" />
<glyph unicode="]" horiz-adv-x="559" d="M80 -156h178v1600h-178v100h326v-1800h-326v100z" />
<glyph unicode="^" horiz-adv-x="1298" d="M106 780l465 647h150q117 -164 233.5 -324.5t233.5 -322.5h-129q-104 137 -206.5 272.5t-207.5 274.5q-104 -139 -205.5 -274t-201.5 -273h-132z" />
<glyph unicode="_" horiz-adv-x="1167" d="M45 -248h1090v-117h-1090v117z" />
<glyph unicode="`" horiz-adv-x="532" d="M63 1538h170l238 -354h-133z" />
<glyph unicode="a" horiz-adv-x="1153" d="M98 272q0 86 41 141.5t105.5 90.5t146.5 54.5t163 36.5t153.5 37.5t121.5 57.5q0 109 -64.5 166t-207.5 57q-104 0 -176 -39.5t-86 -132.5h-156q8 76 43 132.5t87.5 93.5t117 54t135.5 17q211 0 328 -91t117 -290v-464q0 -61 24 -76q10 -6 21.5 -8.5t21.5 -2.5t23 3 l12 -111q-23 -10 -46.5 -14t-57.5 -4q-14 0 -37 10t-43.5 34.5t-35.5 67.5t-15 109q-51 -106 -150.5 -165t-237.5 -59q-74 0 -137 17.5t-110 53.5t-74 91.5t-27 132.5zM248 276q0 -47 18.5 -79.5t50 -54t72.5 -32t86 -10.5q84 0 152.5 42t114.5 106.5t70 143.5q19 61 19 119 q0 17 -2 34q-43 -23 -102 -37t-123.5 -25.5t-128 -26t-114 -36t-82 -56.5t-31.5 -88z" />
<glyph unicode="b" horiz-adv-x="1206" d="M147 0v1536h142v-666q31 37 71.5 69t88 55.5t99.5 35.5t103 12q119 0 205 -43t141.5 -116.5t82 -171t26.5 -203.5t-26.5 -202.5t-82 -170.5t-140.5 -117t-204 -43q-113 0 -206 47.5t-158 129.5v-152h-142zM289 524q0 -25 10 -55q8 -78 31.5 -144.5t65.5 -116.5t102.5 -79 t142.5 -29q88 0 148.5 35t97.5 92.5t53 132t16 152.5q0 80 -18 152.5t-58 129t-101.5 89t-149.5 32.5t-151.5 -31.5t-105.5 -85t-61.5 -124t-21.5 -150.5z" />
<glyph unicode="c" horiz-adv-x="1124" d="M113 522q0 106 31.5 201.5t95 166.5t154.5 112.5t212 41.5q88 0 164 -24.5t132 -69.5t91 -106.5t41 -136.5h-151q-16 115 -91 163t-202 48q-76 0 -136.5 -32t-102.5 -86.5t-64.5 -126t-22.5 -151.5t22.5 -156.5t64.5 -135t101.5 -94.5t135.5 -36q127 0 203.5 71t91.5 175 h155q-29 -180 -139.5 -275.5t-302.5 -95.5q-123 0 -214 48.5t-151.5 125t-89 175t-28.5 198.5z" />
<glyph unicode="d" horiz-adv-x="1206" d="M111 508q0 106 26.5 203.5t81.5 171t141 116.5t205 43q51 0 102.5 -12t99.5 -34.5t89 -54.5t72 -71v666h143v-602v-414v-262v-149.5t1 -74t1 -34.5h-149v154q-66 -88 -157 -133.5t-198 -45.5q-121 0 -208 43t-142 117t-81.5 170t-26.5 203zM260 514q0 -80 15.5 -153.5 t52.5 -132t96 -93.5t147 -35q86 0 151.5 34t111 92.5t68 136t22.5 163.5q0 80 -20.5 151t-61.5 124t-105.5 83.5t-152.5 30.5q-86 0 -147.5 -32.5t-100.5 -88t-57.5 -128t-18.5 -152.5z" />
<glyph unicode="e" horiz-adv-x="1226" d="M117 520q0 102 32.5 196.5t96 167t156 115.5t212.5 43q123 0 217.5 -43t157 -118.5t94 -178t31.5 -221.5h-844q2 -74 25.5 -142.5t69 -119.5t114 -82t160.5 -31q119 0 201 53.5t112 157.5h148q-47 -168 -174 -254t-316 -86q-121 0 -213 44.5t-154.5 119t-94 173 t-31.5 206.5zM274 598h684q-6 68 -28.5 125t-65.5 99t-105.5 65.5t-146.5 23.5q-78 0 -138 -25.5t-103 -69.5t-67.5 -100.5t-29.5 -117.5z" />
<glyph unicode="f" horiz-adv-x="737" d="M59 893v127h213v313q0 102 61.5 159.5t194.5 57.5q31 0 65 -9t64 -23v-113q-43 18 -82 18q-53 0 -84.5 -9t-49 -26.5t-23.5 -45t-6 -64.5v-75.5t2 -182.5h231v-127h-231v-893h-142v893h-213z" />
<glyph unicode="g" horiz-adv-x="1216" d="M111 512q0 109 28.5 205t87 168.5t147.5 114.5t208 42q106 0 194 -38.5t158 -133.5v154h145v-219v-877q-2 -90 -28.5 -168.5t-84 -137t-147.5 -93.5t-219 -35q-78 0 -152.5 16.5t-136 52.5t-102.5 93t-51 137h149q12 -47 41 -78.5t71 -53t91 -31t100 -9.5q63 0 122 20.5 t104 58.5t72.5 90t27.5 116v256q-55 -88 -150.5 -131t-195.5 -43q-121 0 -211 41t-149.5 112.5t-89 166.5t-29.5 204zM260 516q0 -78 21.5 -151.5t64.5 -130t107.5 -90t148.5 -33.5q86 0 149.5 32.5t104.5 89t60.5 129t19.5 152.5v12q0 78 -21.5 148.5t-64.5 124t-105.5 85 t-144.5 31.5q-84 0 -147.5 -32.5t-106.5 -88t-64.5 -128t-21.5 -150.5z" />
<glyph unicode="h" horiz-adv-x="1191" d="M162 0v1536h143v-664q63 94 155.5 132t198.5 38q123 0 199 -37.5t116 -98t53 -136.5t13 -152v-618h-143v690q0 117 -74.5 171t-195.5 54q-76 0 -135.5 -24.5t-101.5 -66.5t-63.5 -97t-21.5 -119v-608h-143z" />
<glyph unicode="i" horiz-adv-x="485" d="M147 1407q0 41 29 69.5t70 28.5t69.5 -28.5t28.5 -69.5t-28.5 -69.5t-69.5 -28.5t-70 28.5t-29 69.5zM176 0v1024h143v-1024h-143z" />
<glyph unicode="j" horiz-adv-x="452" d="M-8 -369q57 0 91 13.5t51.5 37t22.5 57.5t5 75v108v1098h143v-1151q0 -102 -9 -172t-31.5 -113t-64.5 -61.5t-106 -18.5q-23 0 -48.5 2t-53.5 9v116zM143 1407q0 41 29 69.5t70 28.5t69.5 -28.5t28.5 -69.5t-28.5 -69.5t-69.5 -28.5t-70 28.5t-29 69.5z" />
<glyph unicode="k" horiz-adv-x="1107" d="M170 0v1536h143v-977l533 461h188l-485 -430l508 -590h-187l-444 498l-113 -95v-403h-143z" />
<glyph unicode="l" horiz-adv-x="485" d="M176 0v1536h143v-1536h-143z" />
<glyph unicode="m" horiz-adv-x="1892" d="M162 0v774v250h143v-162q63 94 154.5 137t195.5 43q115 0 203 -47t133 -151q63 98 159.5 149t213.5 51t190.5 -39.5t114.5 -101t56.5 -136.5t15.5 -149v-618h-142v678q0 57 -21.5 102t-57 75t-85 45t-104.5 15q-74 0 -130 -31.5t-96 -85t-60.5 -123t-20.5 -145.5v-530 h-141v678q0 57 -21.5 101t-58.5 75t-85 46t-100 15q-76 0 -134 -27.5t-98 -72.5t-60.5 -99t-20.5 -108v-608h-143z" />
<glyph unicode="n" horiz-adv-x="1191" d="M162 0v1024h143v-158q68 92 162 134t201 42q123 0 196.5 -35.5t112.5 -95t51 -136.5t12 -157v-618h-143v696q0 55 -22.5 96.5t-59.5 69t-84 40.5t-96 13q-80 0 -141.5 -25.5t-103.5 -68.5t-63.5 -99t-21.5 -118v-604h-143z" />
<glyph unicode="o" d="M109 508q0 106 31.5 203.5t95 171t159.5 116.5t223 43q129 0 226.5 -43t161 -116.5t95.5 -171t32 -203.5t-32 -201.5t-95.5 -168t-160.5 -115.5t-227 -43q-127 0 -223 43t-159.5 115.5t-95 167.5t-31.5 202zM258 508q0 -78 21.5 -151.5t65.5 -130t112.5 -90.5t160.5 -34 q94 0 163 34t114 90.5t66.5 130t21.5 151.5t-21.5 151.5t-66.5 130t-113.5 91t-163.5 34.5q-92 0 -160.5 -34.5t-112.5 -91t-65.5 -130t-21.5 -151.5z" />
<glyph unicode="p" horiz-adv-x="1218" d="M147 -512v1294v33v209h142v-158q29 43 70.5 77t91 56.5t102.5 33.5t104 11q119 0 206 -43t143.5 -115.5t83 -170t26.5 -203.5q0 -104 -26.5 -200.5t-82 -170t-141.5 -117.5t-204 -44q-109 0 -208.5 44t-164.5 130v-666h-142zM289 520q0 -84 24.5 -159.5t70.5 -133 t113.5 -91.5t153.5 -34t146.5 35t98.5 93.5t54.5 133t16.5 154.5t-19.5 152.5t-59.5 128t-102.5 88.5t-148.5 33q-90 0 -155.5 -32t-108.5 -87.5t-63.5 -128t-20.5 -152.5z" />
<glyph unicode="q" horiz-adv-x="1218" d="M113 512q0 106 26.5 203.5t83 170t143.5 115.5t207 43q55 0 112.5 -12t109 -34.5t89.5 -56.5t54 -79v162h143v-217v-1317h-143v664q-68 -86 -165 -130t-208 -44q-117 0 -203 44t-141 117.5t-81.5 170t-26.5 200.5zM260 518q0 -80 16.5 -154.5t54.5 -133t99.5 -93.5 t149.5 -35q86 0 152.5 34t112.5 91.5t69.5 133t23.5 159.5q0 80 -20.5 152.5t-63.5 128t-108.5 87.5t-153.5 32q-86 0 -149.5 -33t-103.5 -88.5t-59.5 -128t-19.5 -152.5z" />
<glyph unicode="r" horiz-adv-x="718" d="M162 0v1024h137v-158q41 84 107.5 130t154.5 46q29 0 57.5 -2t57.5 -6v-143q-23 6 -43.5 10t-36.5 4q-72 0 -126 -22.5t-92 -62.5t-57.5 -93t-19.5 -113v-614h-139z" />
<glyph unicode="s" horiz-adv-x="1101" d="M111 307h153q2 -57 27.5 -96t64.5 -63.5t90.5 -36t106.5 -11.5q51 0 102.5 9.5t92 31t67.5 56t27 84.5q0 59 -51.5 94t-128 57.5t-166.5 43t-167 54t-128 89t-51 147.5q0 72 34.5 124t91 87t128 52.5t145.5 17.5q82 0 152.5 -17.5t125 -53.5t87 -90.5t38.5 -129.5 q-16 0 -36.5 1t-38.5 1h-74q-4 43 -27.5 72.5t-59.5 49t-81 27.5t-94 8t-93.5 -10t-78 -29.5t-53 -47t-19.5 -62.5q0 -49 38 -79t103.5 -52.5t152.5 -43t185 -50.5q94 -35 153.5 -92.5t59.5 -151.5q0 -84 -39 -145.5t-102.5 -101.5t-146.5 -58.5t-171 -18.5 q-76 0 -149.5 20.5t-133 61.5t-97 104.5t-39.5 147.5z" />
<glyph unicode="t" horiz-adv-x="714" d="M51 897v123h203v293h141v-293h223v-123h-223v-670q0 -68 28 -97.5t116 -29.5q25 0 50 5.5t50 11.5v-117q-31 -8 -66.5 -15.5t-70.5 -7.5q-84 0 -133.5 16.5t-75 46.5t-32.5 72t-7 95v690h-203z" />
<glyph unicode="u" horiz-adv-x="1191" d="M162 412v612h147v-688q0 -53 21.5 -95t57.5 -70t82 -42t95 -14q80 0 141.5 26.5t104.5 69.5t64.5 99.5t21.5 115.5v598h143v-784v-240h-147v166q-66 -94 -159 -134t-202 -40q-121 0 -194.5 34.5t-112.5 93t-51 134.5t-12 158z" />
<glyph unicode="v" horiz-adv-x="1069" d="M25 1024h149l361 -856q92 213 179 428t175 428h151l-428 -1024h-149z" />
<glyph unicode="w" horiz-adv-x="1730" d="M25 1024h151l299 -846h4l305 846h166l152 -422t147 -422h4l295 844h154l-381 -1024h-141q-78 215 -158 431t-158 433q-78 -217 -157.5 -433t-159.5 -431h-148l-188 512t-186 512z" />
<glyph unicode="x" horiz-adv-x="1071" d="M8 0l434 512l-397 512h180l312 -393l317 393h160l-396 -510l416 -514h-180q-84 98 -166 198.5t-166 200.5q-82 -100 -162.5 -200.5t-164.5 -198.5h-187z" />
<glyph unicode="y" horiz-adv-x="1013" d="M-27 1024h160l330 -829l332 829h147l-608 -1534h-146l203 530z" />
<glyph unicode="z" horiz-adv-x="1024" d="M102 0v125l652 760h-652v135h832v-133l-653 -758h653v-129h-832z" />
<glyph unicode="{" horiz-adv-x="632" d="M100 571v127q16 0 31.5 1t30.5 3q43 6 64.5 40t31.5 77t11 86t1 68v362q0 45 17.5 83t46 65.5t65.5 43t78 15.5q29 0 59.5 -7t61.5 -19v-113q-41 14 -76 14q-55 -4 -78.5 -44t-23.5 -124v-321q0 -53 -15.5 -102.5t-38 -89.5t-50 -67.5t-52.5 -35.5q25 -10 52.5 -37 t50 -64.5t38 -85t15.5 -102.5v-321q0 -86 23.5 -125t78.5 -41q35 0 76 12v-111q-31 -12 -61.5 -19t-59.5 -7q-41 0 -78 15t-65.5 43t-46 66t-17.5 83v358q0 25 -1 68t-11 86t-31.5 76.5t-64.5 37.5z" />
<glyph unicode="|" horiz-adv-x="460" d="M166 -567v2160h131v-2160h-131z" />
<glyph unicode="}" horiz-adv-x="618" d="M35 -131q20 -6 39.5 -9t36.5 -3q47 4 74.5 29.5t27.5 82.5v375q0 51 14.5 99.5t37 87t50 66.5t54.5 38q-18 6 -45 26.5t-51.5 52t-42 71.5t-17.5 87v433q0 57 -27.5 82.5t-74.5 29.5q-35 0 -76 -14v113q66 27 121 26q41 0 77.5 -15.5t65.5 -43t46 -65.5t17 -83v-415 q0 -51 6.5 -90t24 -67t51 -44.5t88.5 -20.5v-127q-55 0 -88.5 -16t-51 -46t-24 -70t-6.5 -87v-413q0 -45 -17 -83t-46 -66t-65.5 -43t-77.5 -15q-55 0 -121 26v111z" />
<glyph unicode="~" horiz-adv-x="1429" d="M139 438q16 68 44 132.5t68 115.5t93 82t123 31q57 0 106.5 -20.5t91.5 -50.5t79.5 -65.5t74.5 -65.5t73 -50.5t77 -20.5q51 0 92 27t71.5 64.5t50 82.5t27.5 82q25 -6 49.5 -12t49.5 -10q-33 -166 -119 -263.5t-227 -97.5q-90 0 -155 43t-118 94.5t-105.5 94.5 t-117.5 43q-55 0 -93 -26.5t-65.5 -66.5t-46 -86t-33.5 -87z" />
<glyph unicode="&#xa1;" horiz-adv-x="710" d="M244 1348q0 47 33.5 80.5t80.5 33.5t82 -33.5t35 -80.5t-34.5 -81t-82.5 -34q-47 0 -80.5 33.5t-33.5 81.5zM272 2l33 975h117l33 -975h-183z" />
<glyph unicode="&#xa2;" horiz-adv-x="1124" d="M113 522q0 94 25.5 180t75.5 155t124 116t170 63v285h131v-279q82 -4 151.5 -30.5t122 -70.5t84 -103.5t37.5 -130.5h-151q-16 102 -78 150t-166 58v-813q104 16 167.5 83t76.5 161h155q-27 -168 -127 -263t-272 -106v-239h-131v246q-102 16 -176 68t-123 126t-72.5 163 t-23.5 181zM264 522q0 -70 16.5 -136.5t48 -121.5t77 -95t102.5 -58v794q-57 -16 -102.5 -52t-77 -86t-48 -113.5t-16.5 -131.5z" />
<glyph unicode="&#xa3;" d="M61 580v120h156q-25 160 -23.5 296.5t47.5 237.5t149.5 158.5t285.5 57.5q96 0 173 -25.5t132 -71.5t87 -107.5t36 -135.5h-154q-4 45 -23.5 85t-53 70.5t-82 48t-109.5 17.5q-135 0 -209 -48t-104.5 -133t-27.5 -199.5t21 -250.5h420v-120h-403q16 -152 -4.5 -268.5 t-87.5 -209.5l25 16q26 15 68 33.5t94 34t106 15.5q53 0 99 -17.5t87 -37t77 -36t70 -16.5q31 0 62 11.5t57 25.5q29 16 58 35l75 -94q-20 -20 -51 -39q-27 -16 -67.5 -33.5t-94.5 -30.5q-74 -18 -126 -7t-98 31.5t-93 41t-111 20.5q-63 0 -108 -8t-82 -20.5t-70 -24.5 t-71 -20l-48 98q35 35 56.5 93t32 128t10.5 142.5t-8 136.5h-175z" />
<glyph unicode="&#xa5;" horiz-adv-x="1187" d="M8 1436h166l428 -715l424 715h150l-443 -731h283v-115h-350v-213h350v-119h-350v-258h-146v258h-360v119h360v213h-360v115h291z" />
<glyph unicode="&#xa6;" horiz-adv-x="460" d="M166 375h131v-950h-131v950zM166 643v950h131v-950h-131z" />
<glyph unicode="&#xa7;" horiz-adv-x="1351" d="M129 -74h158q4 -80 36.5 -142.5t86 -106.5t125 -67.5t155.5 -23.5q70 0 141.5 17.5t128 54.5t92 92t35.5 131q0 70 -39.5 115t-104 76.5t-146.5 53t-169 46.5t-169 54.5t-146.5 74.5t-104.5 112.5t-40 166.5q0 84 36 150.5t95 115.5q-59 45 -95 109.5t-36 158.5 q0 92 42 163t112.5 120t163 74.5t190.5 25.5q106 0 200.5 -31.5t166 -86t113.5 -129t42 -160.5h-158q-4 70 -34.5 122t-79.5 86.5t-110.5 52t-125.5 17.5q-63 0 -128.5 -14.5t-120 -45t-89.5 -77.5t-35 -111q0 -98 68 -154.5t170 -92t221 -63.5t221.5 -73t170 -118.5 t67.5 -198.5q0 -92 -33 -162t-92 -121q57 -43 91 -103.5t34 -148.5q0 -109 -48 -189.5t-130 -134t-190.5 -79t-229.5 -25.5q-96 0 -187.5 40t-162 105.5t-114.5 149.5t-44 174zM317 586q0 -66 31 -111t82 -77.5t118.5 -55.5t141.5 -43t149.5 -41.5t143.5 -50.5 q47 37 75.5 89t28.5 120q0 59 -29.5 101t-79.5 71.5t-115.5 51.5t-138.5 41t-147.5 39.5t-142.5 49.5q-53 -31 -85 -77t-32 -107z" />
<glyph unicode="&#xa8;" horiz-adv-x="1028" d="M184 1438q0 39 27 64.5t65 25.5q37 0 64 -25.5t27 -64.5t-27 -64.5t-64 -25.5q-39 0 -65.5 25.5t-26.5 64.5zM643 1438q0 39 26.5 64.5t65.5 25.5q37 0 63.5 -25.5t26.5 -64.5t-26.5 -64.5t-63.5 -25.5q-39 0 -65.5 25.5t-26.5 64.5z" />
<glyph unicode="&#xa9;" horiz-adv-x="1658" d="M76 686q0 145 60.5 273t162.5 224.5t240.5 153t296.5 56.5q156 0 294 -56.5t241.5 -153t162.5 -224.5t59 -273q0 -147 -59 -276t-162.5 -224.5t-241.5 -150.5t-294 -55q-158 0 -296.5 55t-240.5 150.5t-162.5 224.5t-60.5 276zM193 686q0 -129 49 -239.5t135 -191.5 t203.5 -128t255.5 -47q137 0 254.5 47t203.5 128t134.5 191.5t48.5 239.5q0 127 -48.5 236.5t-134.5 191.5t-203.5 128t-254.5 46t-255 -46t-204 -128t-135 -191.5t-49 -236.5zM446 686q0 78 26 147.5t77 122t125 83t170 30.5q70 0 131 -18.5t106 -50t73 -77.5t34 -102h-123 q-12 84 -72.5 119t-161.5 35q-61 0 -110 -23.5t-83 -62.5t-51.5 -92.5t-17.5 -110.5q0 -59 17.5 -114.5t51.5 -98.5t82 -69.5t109 -26.5q102 0 164 51t72 129h127q-23 -131 -113 -200.5t-243 -69.5q-100 0 -173 34.5t-121 91t-72 128t-24 145.5z" />
<glyph unicode="&#xac;" horiz-adv-x="1234" d="M45 688v139h1153v-450h-139v311h-1014z" />
<glyph unicode="&#xad;" horiz-adv-x="1705" />
<glyph unicode="&#xae;" horiz-adv-x="1658" d="M76 686q0 145 60.5 273t162.5 224.5t240.5 153t296.5 56.5q156 0 294 -56.5t241.5 -153t162.5 -224.5t59 -273q0 -147 -59 -276t-162.5 -224.5t-241.5 -150.5t-294 -55q-158 0 -296.5 55t-240.5 150.5t-162.5 224.5t-60.5 276zM193 686q0 -129 49 -239.5t135 -191.5 t203.5 -128t255.5 -47q137 0 254.5 47t203.5 128t134.5 191.5t48.5 239.5q0 127 -48.5 236.5t-134.5 191.5t-203.5 128t-254.5 46t-255 -46t-204 -128t-135 -191.5t-49 -236.5zM489 254v850h371q55 -2 103.5 -21.5t83 -51.5t54 -74t19.5 -89q0 -51 -21.5 -87t-54 -60.5 t-72.5 -37.5t-77 -15q43 -8 71.5 -22.5t49 -37t36 -53.5t31.5 -74q6 -16 20.5 -50t32 -69.5t33 -66.5t23.5 -41h-129l-88 207q-14 31 -30.5 60.5t-38 51t-50.5 35t-72 13.5h-182v-367h-113zM602 713h162h56.5t56.5 2q63 4 98 43t35 110q0 74 -44 105t-110 35q-27 2 -39 2 h-35h-180v-297z" />
<glyph unicode="&#xb0;" horiz-adv-x="647" d="M59 1278q0 53 19.5 100t54.5 82t82 55.5t100 20.5t100.5 -20.5t82 -55.5t55 -82t20.5 -100t-20.5 -100.5t-55 -82t-81.5 -54t-101 -19.5q-53 0 -100 19.5t-82 54t-54.5 82t-19.5 100.5zM162 1278q0 -63 45 -110.5t108 -47.5q66 0 109 47t43 111q0 63 -43 110.5t-109 47.5 q-63 0 -108 -47.5t-45 -110.5z" />
<glyph unicode="&#xb1;" horiz-adv-x="1421" d="M164 870v117h487v447h129v-447h490v-117h-490v-446h-129v446h-487zM207 180v119h1003v-119h-1003z" />
<glyph unicode="&#xb4;" horiz-adv-x="532" d="M63 1184l238 354h170l-274 -354h-134z" />
<glyph unicode="&#xb5;" horiz-adv-x="1191" d="M162 -401v1425h147v-688q0 -53 21.5 -95t57.5 -70t82 -42t95 -14q80 0 141.5 26.5t104.5 69.5t64.5 99.5t21.5 115.5v598h143v-1024h-147v166q-66 -94 -159 -134t-202 -40q-76 0 -131 13t-96 38v-444h-143z" />
<glyph unicode="&#xb8;" horiz-adv-x="647" d="M117 -225h90q6 -35 37.5 -62.5t81.5 -27.5q53 0 79.5 38.5t26.5 77.5q0 20 -6 43t-19.5 41.5t-34 29.5t-46.5 11q-29 0 -58.5 -11t-44.5 -30l-67 43l120 222h72l-29 -58q-12 -25 -25 -53.5t-26 -52.5q10 6 21 12q10 4 23.5 8t29.5 4q39 0 74 -17.5t60.5 -46t39.5 -66.5 t14 -79q0 -82 -54 -143t-150 -61q-78 0 -139.5 51t-69.5 127z" />
<glyph unicode="&#xbc;" horiz-adv-x="1832" d="M201 1143v98q49 4 89 25.5t71.5 51.5t56 62.5t43.5 57.5h119v-834h-121v664q-53 -61 -116.5 -89t-141.5 -36zM465 -25l784 1473h127l-780 -1473h-131zM944 195v108l436 524h140v-526h137v-106h-137v-195h-125v195h-451zM1098 301h297v358h-4q-72 -90 -146 -179t-147 -179 z" />
<glyph unicode="&#xbd;" horiz-adv-x="1828" d="M201 1143v98q49 4 89 25.5t71.5 51.5t56 62.5t43.5 57.5h119v-834h-121v664q-53 -61 -116.5 -89t-141.5 -36zM440 -25q199 369 393.5 734.5t391.5 738.5h129q-197 -373 -391.5 -738.5t-391.5 -734.5h-131zM1075 0q2 31 3 57.5t5 53.5q27 43 67 82.5t88 77.5t101.5 76 t106.5 75q55 39 92 84t37 92q0 66 -48 93.5t-124 27.5q-20 0 -33 -17q-74 -14 -116 -56t-42 -95h-118q0 135 87 211t228 76q63 0 119.5 -18.5t96.5 -51.5t63.5 -78t23.5 -96q0 -86 -50 -146.5t-122 -111.5t-148.5 -99.5t-131.5 -111.5h460v-125h-645z" />
<glyph unicode="&#xbe;" horiz-adv-x="1835" d="M76 862h133q6 -84 62.5 -116.5t140.5 -32.5q90 0 148 31.5t58 97.5q0 80 -63 110.5t-160 30.5q-10 0 -23.5 -1t-23.5 -1v115q8 0 14.5 -1t16.5 -1q98 0 157.5 28.5t59.5 96.5q0 53 -51 79.5t-131 26.5q-90 0 -134 -36t-55 -97h-131q6 121 93 188.5t219 67.5 q66 0 124 -15.5t102 -44t69.5 -70.5t25.5 -95q0 -68 -50 -111t-122 -68q84 -20 140.5 -70t56.5 -136q0 -59 -29 -105.5t-77 -77t-109.5 -47t-124.5 -16.5q-147 0 -236.5 67.5t-99.5 202.5zM477 -25q199 369 393.5 734.5t393.5 738.5h127q-197 -373 -391.5 -738.5 t-391.5 -734.5h-131zM948 195v108l436 524h138v-526h139v-106h-139v-195h-123v195h-451zM1102 301h297v358q-78 -88 -151.5 -178t-145.5 -180z" />
<glyph unicode="&#xbf;" horiz-adv-x="1110" d="M133 309q0 66 20.5 118t54.5 97t76 86t87 84q31 31 59.5 56.5t50 51t34.5 54.5t13 66v108h154v-121q0 -59 -29.5 -108t-75 -94t-97.5 -89.5t-96 -90.5t-73.5 -99t-29.5 -117q0 -115 65.5 -179t192.5 -73q43 0 94 16.5t95 51.5t72.5 89t28.5 130h140q0 -96 -35 -171 t-91.5 -128t-130 -80.5t-149.5 -27.5q-96 0 -176 28.5t-136 77.5t-87 116.5t-31 147.5zM485 1329q0 47 34 81t81 34t82 -34t35 -81t-35 -81t-82 -34t-81 34t-34 81z" />
<glyph unicode="&#xc0;" horiz-adv-x="1435" d="M10 0l611 1436h186l610 -1436h-162l-170 422h-749l-168 -422h-158zM385 551h647l-319 752zM432 1935h170l238 -354h-133z" />
<glyph unicode="&#xc1;" horiz-adv-x="1435" d="M10 0l611 1436h186l610 -1436h-162l-170 422h-749l-168 -422h-158zM385 551h647l-319 752zM532 1581l238 354h170l-274 -354h-134z" />
<glyph unicode="&#xc2;" horiz-adv-x="1435" d="M10 0l611 1436h186l610 -1436h-162l-170 422h-749l-168 -422h-158zM348 1479l293 344h150l299 -346h-140l-235 256l-232 -254h-135zM385 551h647l-319 752z" />
<glyph unicode="&#xc3;" horiz-adv-x="1435" d="M10 0l611 1436h186l610 -1436h-162l-170 422h-749l-168 -422h-158zM283 1599q12 55 32.5 109.5t50 95.5t69.5 66.5t91 25.5q63 0 111.5 -34.5t88.5 -76.5t77 -77t82 -35q37 0 67.5 21.5t53 53.5t37 68.5t20.5 67.5q18 -6 44 -10t44 -8q-25 -137 -88.5 -221t-167.5 -84 q-68 0 -114 35.5t-82.5 77.5t-73.5 78t-86 36q-41 0 -70 -20.5t-49.5 -52.5t-33.5 -68.5t-24 -69.5zM385 551h647l-319 752z" />
<glyph unicode="&#xc4;" horiz-adv-x="1435" d="M10 0l611 1436h186l610 -1436h-162l-170 422h-749l-168 -422h-158zM383 1618q0 39 26.5 64.5t65.5 25.5q37 0 63.5 -25.5t26.5 -64.5t-26.5 -64.5t-63.5 -25.5q-39 0 -65.5 25.5t-26.5 64.5zM385 551h647l-319 752zM842 1618q0 39 26.5 64.5t65.5 25.5q37 0 63.5 -25.5 t26.5 -64.5t-26.5 -64.5t-63.5 -25.5q-39 0 -65.5 25.5t-26.5 64.5z" />
<glyph unicode="&#xc5;" horiz-adv-x="1435" d="M10 0l582 1366q-61 33 -98 92t-37 135q0 53 19.5 100.5t54 82t81.5 55t101 20.5q53 0 100 -20.5t82 -55t55.5 -81.5t20.5 -101q0 -74 -38 -133t-97 -92l581 -1368h-162l-170 422h-749l-168 -422h-158zM385 551h647l-319 752zM559 1593q0 -61 43 -108t105 -49h6 q66 0 108.5 47t42.5 110t-43 110.5t-108 47.5q-63 0 -108.5 -47.5t-45.5 -110.5z" />
<glyph unicode="&#xc6;" horiz-adv-x="1796" d="M0 0l881 1436h751v-131h-557v-498h531v-131h-531v-545h584v-131h-725v422h-504l-276 -422h-154zM494 551h440v715z" />
<glyph unicode="&#xc7;" horiz-adv-x="1503" d="M135 731q0 143 42 277.5t127 238t214 166t303 62.5q111 0 208 -30t172 -85t124 -134t66 -177h-162q-16 76 -53 131t-90.5 92t-121 54t-143.5 17q-141 0 -240.5 -51t-164 -137t-94 -196.5t-29.5 -229.5q0 -145 31.5 -263t98 -201t166 -128t234.5 -45q76 0 145.5 27.5 t125 75t94.5 112t55 135.5h158q-18 -102 -68.5 -189t-125 -150.5t-169 -100.5t-198.5 -39l-58 -119q10 6 21 13q10 4 23.5 8t29.5 4q39 0 74 -17.5t60.5 -46t39.5 -66.5t14 -79q0 -82 -54 -143.5t-150 -61.5q-78 0 -139.5 51.5t-69.5 126.5h90q6 -35 38 -62.5t81 -27.5 q53 0 79.5 39t26.5 78q0 20 -6 43t-19.5 41t-34 29.5t-46.5 11.5q-29 0 -58.5 -11.5t-44.5 -29.5l-67 43l96 178q-160 8 -277.5 67.5t-196.5 160t-118 236.5t-39 302z" />
<glyph unicode="&#xc8;" horiz-adv-x="1331" d="M195 0v1436h972v-131h-823v-498h786v-131h-786v-545h860v-131h-1009zM408 1935h170l237 -354h-133z" />
<glyph unicode="&#xc9;" horiz-adv-x="1331" d="M195 0v1436h972v-131h-823v-498h786v-131h-786v-545h860v-131h-1009zM532 1581l238 354h170l-274 -354h-134z" />
<glyph unicode="&#xca;" horiz-adv-x="1331" d="M195 0v1436h972v-131h-823v-498h786v-131h-786v-545h860v-131h-1009zM303 1569l293 344h149l299 -346h-139l-235 256l-232 -254h-135z" />
<glyph unicode="&#xcb;" horiz-adv-x="1331" d="M195 0v1436h972v-131h-823v-498h786v-131h-786v-545h860v-131h-1009zM367 1694q0 39 26.5 64.5t65.5 25.5q37 0 63.5 -25.5t26.5 -64.5t-26.5 -64.5t-63.5 -25.5q-39 0 -65.5 25.5t-26.5 64.5zM825 1694q0 39 27 64.5t66 25.5q37 0 63.5 -25.5t26.5 -64.5t-27 -64.5 t-63 -25.5q-39 0 -66 25.5t-27 64.5z" />
<glyph unicode="&#xcc;" horiz-adv-x="598" d="M82 1935h170l237 -354h-133zM229 0v1438h152v-1438h-152z" />
<glyph unicode="&#xcd;" horiz-adv-x="598" d="M117 1581l237 354h170l-274 -354h-133zM229 0v1438h152v-1438h-152z" />
<glyph unicode="&#xce;" horiz-adv-x="598" d="M-72 1569l293 344h150l299 -346h-140l-235 256l-232 -254h-135zM229 0v1438h152v-1438h-152z" />
<glyph unicode="&#xcf;" horiz-adv-x="598" d="M-14 1694q0 39 26.5 64.5t65.5 25.5q37 0 63.5 -25.5t26.5 -64.5t-26.5 -64.5t-63.5 -25.5q-39 0 -65.5 25.5t-26.5 64.5zM229 0v1438h152v-1438h-152zM444 1694q0 39 27 64.5t66 25.5q37 0 63.5 -25.5t26.5 -64.5t-27 -64.5t-63 -25.5q-39 0 -66 25.5t-27 64.5z" />
<glyph unicode="&#xd0;" horiz-adv-x="1552" d="M-2 666v139h180v631h477q86 0 164 -6q143 -10 256 -66.5t190.5 -151t118.5 -220.5t41 -273q0 -162 -53 -294t-152.5 -226.5t-241.5 -146.5t-323 -52h-477v666h-180zM330 131h327q305 0 457 155.5t152 430.5q0 154 -48.5 264.5t-135.5 183t-212 106.5t-278 34h-262v-500 h282v-139h-282v-535z" />
<glyph unicode="&#xd1;" horiz-adv-x="1527" d="M178 0v1436h184l850 -1250v1250h150v-1436h-195q-211 311 -417.5 620.5t-415.5 620.5h-4v-1241h-152zM348 1599q12 55 32.5 109.5t50.5 95.5t70 66.5t91 25.5q63 0 111.5 -34.5t88 -76.5t76.5 -77t82 -35q37 0 68 21.5t53.5 53.5t36.5 68.5t20 67.5q18 -6 44 -10t45 -8 q-25 -137 -88.5 -221t-167.5 -84q-68 0 -114 35.5t-83 77.5t-74 78t-86 36q-41 0 -69.5 -20.5t-49 -52.5t-34 -68.5t-23.5 -69.5z" />
<glyph unicode="&#xd2;" horiz-adv-x="1683" d="M143 717q0 166 53.5 304t148.5 237.5t223 154.5t280 55q160 0 289 -55t221 -154.5t142 -237.5t50 -304t-49 -304.5t-140 -237.5t-221 -154.5t-292 -55.5q-160 0 -290 55.5t-222 154.5t-142.5 237.5t-50.5 304.5zM293 717q0 -137 40 -251t112.5 -197t175 -129t227.5 -46 q119 0 220 46t175 129t116 197t42 251q0 135 -39 249.5t-110.5 197.5t-174 129t-229.5 46q-125 0 -227.5 -46t-175 -129t-112.5 -197.5t-40 -249.5zM608 1935h170l238 -354h-133z" />
<glyph unicode="&#xd3;" horiz-adv-x="1683" d="M143 717q0 166 53.5 304t148.5 237.5t223 154.5t280 55q160 0 289 -55t221 -154.5t142 -237.5t50 -304t-49 -304.5t-140 -237.5t-221 -154.5t-292 -55.5q-160 0 -290 55.5t-222 154.5t-142.5 237.5t-50.5 304.5zM293 717q0 -137 40 -251t112.5 -197t175 -129t227.5 -46 q119 0 220 46t175 129t116 197t42 251q0 135 -39 249.5t-110.5 197.5t-174 129t-229.5 46q-125 0 -227.5 -46t-175 -129t-112.5 -197.5t-40 -249.5zM684 1581l238 354h170l-275 -354h-133z" />
<glyph unicode="&#xd4;" horiz-adv-x="1683" d="M143 717q0 166 53.5 304t148.5 237.5t223 154.5t280 55q160 0 289 -55t221 -154.5t142 -237.5t50 -304t-49 -304.5t-140 -237.5t-221 -154.5t-292 -55.5q-160 0 -290 55.5t-222 154.5t-142.5 237.5t-50.5 304.5zM293 717q0 -137 40 -251t112.5 -197t175 -129t227.5 -46 q119 0 220 46t175 129t116 197t42 251q0 135 -39 249.5t-110.5 197.5t-174 129t-229.5 46q-125 0 -227.5 -46t-175 -129t-112.5 -197.5t-40 -249.5zM481 1569l293 344h150l299 -346h-140l-235 256l-232 -254h-135z" />
<glyph unicode="&#xd5;" horiz-adv-x="1683" d="M143 717q0 166 53.5 304t148.5 237.5t223 154.5t280 55q160 0 289 -55t221 -154.5t142 -237.5t50 -304t-49 -304.5t-140 -237.5t-221 -154.5t-292 -55.5q-160 0 -290 55.5t-222 154.5t-142.5 237.5t-50.5 304.5zM293 717q0 -137 40 -251t112.5 -197t175 -129t227.5 -46 q119 0 220 46t175 129t116 197t42 251q0 135 -39 249.5t-110.5 197.5t-174 129t-229.5 46q-125 0 -227.5 -46t-175 -129t-112.5 -197.5t-40 -249.5zM420 1599q12 55 32.5 109.5t50 95.5t70 66.5t91.5 25.5q63 0 111 -34.5t88 -76.5t77 -77t82 -35q37 0 67.5 21.5t53 53.5 t37 68.5t20.5 67.5q18 -6 44 -10t44 -8q-25 -137 -88 -221t-168 -84q-68 0 -114 35.5t-82.5 77.5t-73.5 78t-86 36q-41 0 -69.5 -20.5t-49 -52.5t-34 -68.5t-23.5 -69.5z" />
<glyph unicode="&#xd6;" horiz-adv-x="1683" d="M143 717q0 166 53.5 304t148.5 237.5t223 154.5t280 55q160 0 289 -55t221 -154.5t142 -237.5t50 -304t-49 -304.5t-140 -237.5t-221 -154.5t-292 -55.5q-160 0 -290 55.5t-222 154.5t-142.5 237.5t-50.5 304.5zM293 717q0 -137 40 -251t112.5 -197t175 -129t227.5 -46 q119 0 220 46t175 129t116 197t42 251q0 135 -39 249.5t-110.5 197.5t-174 129t-229.5 46q-125 0 -227.5 -46t-175 -129t-112.5 -197.5t-40 -249.5zM510 1694q0 39 26.5 64.5t65.5 25.5q37 0 63.5 -25.5t26.5 -64.5t-26.5 -64.5t-63.5 -25.5q-39 0 -65.5 25.5t-26.5 64.5z M969 1694q0 39 26.5 64.5t65.5 25.5q37 0 63.5 -25.5t26.5 -64.5t-26.5 -64.5t-63.5 -25.5q-39 0 -65.5 25.5t-26.5 64.5z" />
<glyph unicode="&#xd7;" horiz-adv-x="1075" d="M154 227l311 314l-311 313l84 84l311 -313l313 313l84 -84l-313 -313l313 -314l-84 -84l-313 314l-311 -314z" />
<glyph unicode="&#xd8;" horiz-adv-x="1683" d="M143 717q0 166 53.5 304t148.5 237.5t223 154.5t280 55q111 0 205 -26.5t174 -75.5l82 113l98 -72l-84 -115q109 -100 168 -247.5t59 -327.5q0 -166 -49 -304.5t-140 -237.5t-221 -154.5t-292 -55.5q-236 0 -406 117l-75 -105l-99 70l82 113q-100 100 -153.5 241.5 t-53.5 315.5zM293 717q0 -135 37 -245t106 -193l711 976q-63 41 -138 62.5t-161 21.5q-125 0 -227.5 -46t-175 -129t-112.5 -197.5t-40 -249.5zM524 195q66 -47 147 -74t177 -27q119 0 220 46t175 129t116 197t42 251q0 141 -42 259t-120 202z" />
<glyph unicode="&#xd9;" horiz-adv-x="1519" d="M188 489v949h150v-955q2 -92 35 -163.5t90 -123t133 -78t166 -26.5q92 0 170 25.5t135 75t91 122t36 164.5v959h152v-953q0 -121 -42 -218t-119 -164.5t-183.5 -103.5t-237.5 -36t-236.5 36t-181.5 103.5t-117 165t-41 221.5zM520 1935h170l238 -354h-133z" />
<glyph unicode="&#xda;" horiz-adv-x="1519" d="M188 489v949h150v-955q2 -92 35 -163.5t90 -123t133 -78t166 -26.5q92 0 170 25.5t135 75t91 122t36 164.5v959h152v-953q0 -121 -42 -218t-119 -164.5t-183.5 -103.5t-237.5 -36t-236.5 36t-181.5 103.5t-117 165t-41 221.5zM586 1581l237 354h170l-274 -354h-133z" />
<glyph unicode="&#xdb;" horiz-adv-x="1519" d="M188 489v949h150v-955q2 -92 35 -163.5t90 -123t133 -78t166 -26.5q92 0 170 25.5t135 75t91 122t36 164.5v959h152v-953q0 -121 -42 -218t-119 -164.5t-183.5 -103.5t-237.5 -36t-236.5 36t-181.5 103.5t-117 165t-41 221.5zM397 1569l293 344h150l299 -346h-140 l-235 256l-232 -254h-135z" />
<glyph unicode="&#xdc;" horiz-adv-x="1519" d="M188 489v949h150v-955q2 -92 35 -163.5t90 -123t133 -78t166 -26.5q92 0 170 25.5t135 75t91 122t36 164.5v959h152v-953q0 -121 -42 -218t-119 -164.5t-183.5 -103.5t-237.5 -36t-236.5 36t-181.5 103.5t-117 165t-41 221.5zM440 1694q0 39 27 64.5t65 25.5 q37 0 64 -25.5t27 -64.5t-27 -64.5t-64 -25.5q-39 0 -65.5 25.5t-26.5 64.5zM899 1694q0 39 26.5 64.5t65.5 25.5q37 0 63.5 -25.5t26.5 -64.5t-26.5 -64.5t-63.5 -25.5q-39 0 -65.5 25.5t-26.5 64.5z" />
<glyph unicode="&#xdd;" horiz-adv-x="1320" d="M8 1436h187l475 -715l471 715h166l-572 -844v-592h-151v592zM502 1581l237 354h170l-274 -354h-133z" />
<glyph unicode="&#xde;" horiz-adv-x="1261" d="M176 0v1536h143v-346h246q262 0 402.5 -121t140.5 -336q0 -213 -140.5 -330.5t-402.5 -117.5h-246v-285h-143zM319 408h246q188 0 290.5 83.5t102.5 241.5t-102 244t-291 86h-246v-655z" />
<glyph unicode="&#xdf;" horiz-adv-x="1431" d="M193 0v1026q0 39 4 87t19 98.5t45 96.5t84 79.5t134 51t195 9.5q96 -6 167.5 -37t119 -81t68 -116.5t13.5 -140.5q-4 -51 -31.5 -97t-58 -86t-56.5 -72t-26 -54q0 -27 32 -52.5t80 -56t103.5 -65.5t103.5 -77t79.5 -93t31.5 -113q0 -96 -34.5 -157.5t-86 -97.5 t-110.5 -48t-111 -8q-117 8 -185 52t-126 124l121 59q12 -16 26.5 -31.5t35 -29.5t49 -24.5t71.5 -16.5q18 -4 52 -3t66 15.5t55.5 48t23.5 97.5q0 43 -31 83t-78 77.5t-101 73.5t-101.5 73t-78 75t-30.5 79q0 43 22.5 77.5t52 70.5t55.5 77t32 100q12 111 -48.5 174.5 t-195.5 85.5q-66 8 -123 -9t-99 -56t-65.5 -93.5t-23.5 -119.5v-1055h-141z" />
<glyph unicode="&#xe0;" horiz-adv-x="1153" d="M98 272q0 86 41 141.5t105.5 90.5t146.5 54.5t163 36.5t153.5 37.5t121.5 57.5q0 109 -64.5 166t-207.5 57q-104 0 -179 -39.5t-89 -132.5h-150q8 76 43 132.5t87.5 93.5t117 54t135.5 17q211 0 325 -91t114 -290v-464q0 -61 24 -76q10 -6 21.5 -8.5t21.5 -2.5t23 3 l12 -111q-23 -10 -46.5 -14t-58.5 -4q-14 0 -35.5 10t-41 34.5t-33.5 67.5t-14 109q-51 -106 -150.5 -165t-237.5 -59q-74 0 -137 17.5t-110 53.5t-74 91.5t-27 132.5zM242 276q0 -47 19.5 -79.5t52 -54t74.5 -32t87 -10.5q84 0 152.5 42t114.5 106.5t70 143.5t17 153 q-43 -23 -102 -37t-124.5 -25.5t-130 -26t-116 -36t-83 -56.5t-31.5 -88zM301 1563h170l238 -355h-134z" />
<glyph unicode="&#xe1;" horiz-adv-x="1153" d="M98 272q0 86 41 141.5t105.5 90.5t146.5 54.5t163 36.5t153.5 37.5t121.5 57.5q0 109 -64.5 166t-207.5 57q-104 0 -179 -39.5t-89 -132.5h-150q8 76 43 132.5t87.5 93.5t117 54t135.5 17q211 0 325 -91t114 -290v-464q0 -61 24 -76q10 -6 21.5 -8.5t21.5 -2.5t23 3 l12 -111q-23 -10 -46.5 -14t-58.5 -4q-14 0 -35.5 10t-41 34.5t-33.5 67.5t-14 109q-51 -106 -150.5 -165t-237.5 -59q-74 0 -137 17.5t-110 53.5t-74 91.5t-27 132.5zM242 276q0 -47 19.5 -79.5t52 -54t74.5 -32t87 -10.5q84 0 152.5 42t114.5 106.5t70 143.5t17 153 q-43 -23 -102 -37t-124.5 -25.5t-130 -26t-116 -36t-83 -56.5t-31.5 -88zM403 1208l238 355h170l-274 -355h-134z" />
<glyph unicode="&#xe2;" horiz-adv-x="1153" d="M98 272q0 86 41 141.5t105.5 90.5t146.5 54.5t163 36.5t153.5 37.5t121.5 57.5q0 109 -64.5 166t-207.5 57q-104 0 -179 -39.5t-89 -132.5h-150q8 76 43 132.5t87.5 93.5t117 54t135.5 17q211 0 325 -91t114 -290v-464q0 -61 24 -76q10 -6 21.5 -8.5t21.5 -2.5t23 3 l12 -111q-23 -10 -46.5 -14t-58.5 -4q-14 0 -35.5 10t-41 34.5t-33.5 67.5t-14 109q-51 -106 -150.5 -165t-237.5 -59q-74 0 -137 17.5t-110 53.5t-74 91.5t-27 132.5zM186 1194l293 344h150l299 -346h-140l-235 256l-231 -254h-136zM242 276q0 -47 19.5 -79.5t52 -54 t74.5 -32t87 -10.5q84 0 152.5 42t114.5 106.5t70 143.5t17 153q-43 -23 -102 -37t-124.5 -25.5t-130 -26t-116 -36t-83 -56.5t-31.5 -88z" />
<glyph unicode="&#xe3;" horiz-adv-x="1153" d="M98 272q0 86 41 141.5t105.5 90.5t146.5 54.5t163 36.5t153.5 37.5t121.5 57.5q0 109 -64.5 166t-207.5 57q-104 0 -179 -39.5t-89 -132.5h-150q8 76 43 132.5t87.5 93.5t117 54t135.5 17q211 0 325 -91t114 -290v-464q0 -61 24 -76q10 -6 21.5 -8.5t21.5 -2.5t23 3 l12 -111q-23 -10 -46.5 -14t-58.5 -4q-14 0 -35.5 10t-41 34.5t-33.5 67.5t-14 109q-51 -106 -150.5 -165t-237.5 -59q-74 0 -137 17.5t-110 53.5t-74 91.5t-27 132.5zM131 1257q12 55 32.5 109.5t50.5 95.5t70 66.5t91 25.5q63 0 111.5 -34.5t88 -76.5t76.5 -77t82 -35 q37 0 67.5 21.5t53.5 53.5t37 68.5t20 67.5q18 -6 44 -10t44 -8q-25 -137 -88 -221t-168 -84q-68 0 -113.5 35.5t-82.5 77.5t-74 78t-86 36q-41 0 -69.5 -20.5t-49 -52.5t-34 -68.5t-23.5 -69.5zM242 276q0 -47 19.5 -79.5t52 -54t74.5 -32t87 -10.5q84 0 152.5 42 t114.5 106.5t70 143.5t17 153q-43 -23 -102 -37t-124.5 -25.5t-130 -26t-116 -36t-83 -56.5t-31.5 -88z" />
<glyph unicode="&#xe4;" horiz-adv-x="1153" d="M98 272q0 86 41 141.5t105.5 90.5t146.5 54.5t163 36.5t153.5 37.5t121.5 57.5q0 109 -64.5 166t-207.5 57q-104 0 -179 -39.5t-89 -132.5h-150q8 76 43 132.5t87.5 93.5t117 54t135.5 17q211 0 325 -91t114 -290v-464q0 -61 24 -76q10 -6 21.5 -8.5t21.5 -2.5t23 3 l12 -111q-23 -10 -46.5 -14t-58.5 -4q-14 0 -35.5 10t-41 34.5t-33.5 67.5t-14 109q-51 -106 -150.5 -165t-237.5 -59q-74 0 -137 17.5t-110 53.5t-74 91.5t-27 132.5zM221 1376q0 39 26.5 64.5t65.5 25.5q37 0 63.5 -25.5t26.5 -64.5t-26.5 -64.5t-63.5 -25.5 q-39 0 -65.5 25.5t-26.5 64.5zM242 276q0 -47 19.5 -79.5t52 -54t74.5 -32t87 -10.5q84 0 152.5 42t114.5 106.5t70 143.5t17 153q-43 -23 -102 -37t-124.5 -25.5t-130 -26t-116 -36t-83 -56.5t-31.5 -88zM680 1376q0 39 26.5 64.5t65.5 25.5q37 0 63.5 -25.5t26.5 -64.5 t-26.5 -64.5t-63.5 -25.5q-39 0 -65.5 25.5t-26.5 64.5z" />
<glyph unicode="&#xe5;" horiz-adv-x="1153" d="M98 272q0 86 41 141.5t105.5 90.5t146.5 54.5t163 36.5t153.5 37.5t121.5 57.5q0 109 -64.5 166t-207.5 57q-104 0 -179 -39.5t-89 -132.5h-150q8 76 43 132.5t87.5 93.5t117 54t135.5 17q211 0 325 -91t114 -290v-464q0 -61 24 -76q10 -6 21.5 -8.5t21.5 -2.5t23 3 l12 -111q-23 -10 -46.5 -14t-58.5 -4q-14 0 -35.5 10t-41 34.5t-33.5 67.5t-14 109q-51 -106 -150.5 -165t-237.5 -59q-74 0 -137 17.5t-110 53.5t-74 91.5t-27 132.5zM242 276q0 -47 19.5 -79.5t52 -54t74.5 -32t87 -10.5q84 0 152.5 42t114.5 106.5t70 143.5t17 153 q-43 -23 -102 -37t-124.5 -25.5t-130 -26t-116 -36t-83 -56.5t-31.5 -88zM303 1405q0 53 19.5 100t54.5 82t82 55.5t100 20.5t100.5 -20.5t82 -55.5t55 -82t20.5 -100t-20.5 -100.5t-55 -82t-82 -54t-100.5 -19.5t-100 19.5t-82 54t-54.5 82t-19.5 100.5zM406 1405 q0 -63 45 -110.5t108 -47.5q66 0 109 47t43 111q0 63 -43 110.5t-109 47.5q-63 0 -108 -47.5t-45 -110.5z" />
<glyph unicode="&#xe6;" horiz-adv-x="1624" d="M84 272q0 86 34 141.5t87 90.5t119.5 54.5t134 36.5t129 37.5t102.5 57.5q0 121 -46 167t-169 46q-88 0 -140 -34.5t-63 -127.5h-153q8 76 36.5 132.5t73.5 93.5t100.5 54t116.5 17q248 0 336 -174q53 80 134 129t192 49q106 0 186 -43t133.5 -118.5t81 -178t27.5 -221.5 h-696q2 -74 17 -141.5t50 -118.5t89.5 -80.5t133.5 -29.5q100 0 159 51t85 155h148q-39 -168 -148.5 -254t-269.5 -86q-135 0 -227.5 74t-141.5 191q-16 -61 -52 -109.5t-85 -83.5t-105.5 -53.5t-111.5 -18.5q-61 0 -115.5 17.5t-94.5 53.5t-63.5 91.5t-23.5 132.5zM236 276 q0 -92 46 -128.5t124 -36.5q72 0 128 39.5t95 102t56 140.5t13 152q-37 -23 -85 -37t-99 -25.5t-101.5 -26t-89 -36t-63 -56.5t-24.5 -88zM844 598h536q-6 68 -22.5 124t-48 97t-81.5 63.5t-122 22.5q-66 0 -114 -24.5t-79.5 -67.5t-49 -98.5t-19.5 -116.5z" />
<glyph unicode="&#xe7;" horiz-adv-x="1124" d="M113 522q0 106 31.5 201.5t95 166.5t154.5 112.5t212 41.5q88 0 164 -24.5t132 -69.5t91 -106.5t41 -136.5h-151q-16 115 -91 163t-202 48q-76 0 -136.5 -32t-102.5 -86.5t-64.5 -126t-22.5 -151.5t22.5 -156.5t64.5 -135t101.5 -94.5t135.5 -36q127 0 203.5 71t91.5 175 h155q-29 -178 -138 -273.5t-300 -97.5l-59 -125q10 6 20 13q10 4 23.5 8t29.5 4q39 0 74 -17.5t60.5 -46t40 -66.5t14.5 -79q0 -82 -54.5 -143.5t-150.5 -61.5q-78 0 -139.5 51.5t-69.5 127.5h90q6 -35 38 -63t81 -28q53 0 80 39t27 78q0 20 -6.5 43t-19.5 41.5t-33.5 29.5 t-47.5 11q-29 0 -58.5 -11t-43.5 -30l-68 43l100 187q-106 12 -184 63t-129 127t-76.5 167t-25.5 185z" />
<glyph unicode="&#xe8;" horiz-adv-x="1226" d="M117 520q0 102 32.5 196.5t96 167t156 115.5t212.5 43q123 0 217.5 -43t157 -118.5t94 -178t31.5 -221.5h-844q2 -74 25.5 -143.5t69 -121.5t114 -84t160.5 -32q119 0 204 56.5t115 160.5h142q-47 -168 -174 -254t-316 -86q-121 0 -213 44.5t-154.5 119t-94 173 t-31.5 206.5zM274 598h691q-6 68 -30 126t-68 100t-107.5 66.5t-147.5 24.5q-78 0 -138 -26.5t-103 -70.5t-67.5 -101.5t-29.5 -118.5zM338 1563h170l237 -355h-133z" />
<glyph unicode="&#xe9;" horiz-adv-x="1226" d="M117 520q0 102 32.5 196.5t96 167t156 115.5t212.5 43q123 0 217.5 -43t157 -118.5t94 -178t31.5 -221.5h-844q2 -74 25.5 -143.5t69 -121.5t114 -84t160.5 -32q119 0 204 56.5t115 160.5h142q-47 -168 -174 -254t-316 -86q-121 0 -213 44.5t-154.5 119t-94 173 t-31.5 206.5zM274 598h691q-6 68 -30 126t-68 100t-107.5 66.5t-147.5 24.5q-78 0 -138 -26.5t-103 -70.5t-67.5 -101.5t-29.5 -118.5zM465 1208l237 355h170l-274 -355h-133z" />
<glyph unicode="&#xea;" horiz-adv-x="1226" d="M117 520q0 102 32.5 196.5t96 167t156 115.5t212.5 43q123 0 217.5 -43t157 -118.5t94 -178t31.5 -221.5h-844q2 -74 25.5 -143.5t69 -121.5t114 -84t160.5 -32q119 0 204 56.5t115 160.5h142q-47 -168 -174 -254t-316 -86q-121 0 -213 44.5t-154.5 119t-94 173 t-31.5 206.5zM246 1194l293 344h149l299 -346h-139l-236 256l-231 -254h-135zM274 598h691q-6 68 -30 126t-68 100t-107.5 66.5t-147.5 24.5q-78 0 -138 -26.5t-103 -70.5t-67.5 -101.5t-29.5 -118.5z" />
<glyph unicode="&#xeb;" horiz-adv-x="1226" d="M117 520q0 102 32.5 196.5t96 167t156 115.5t212.5 43q123 0 217.5 -43t157 -118.5t94 -178t31.5 -221.5h-844q2 -74 25.5 -143.5t69 -121.5t114 -84t160.5 -32q119 0 204 56.5t115 160.5h142q-47 -168 -174 -254t-316 -86q-121 0 -213 44.5t-154.5 119t-94 173 t-31.5 206.5zM274 598h691q-6 68 -30 126t-68 100t-107.5 66.5t-147.5 24.5q-78 0 -138 -26.5t-103 -70.5t-67.5 -101.5t-29.5 -118.5zM287 1376q0 39 26.5 64.5t65.5 25.5q37 0 63.5 -25.5t26.5 -64.5t-26.5 -64.5t-63.5 -25.5q-39 0 -65.5 25.5t-26.5 64.5zM745 1376 q0 39 27 64.5t66 25.5q37 0 63.5 -25.5t26.5 -64.5t-27 -64.5t-63 -25.5q-39 0 -66 25.5t-27 64.5z" />
<glyph unicode="&#xec;" horiz-adv-x="485" d="M-10 1563h170l237 -355h-133zM176 0v1024h143v-1024h-143z" />
<glyph unicode="&#xed;" horiz-adv-x="485" d="M94 1208l238 355h170l-275 -355h-133zM176 0v1024h143v-1024h-143z" />
<glyph unicode="&#xee;" horiz-adv-x="485" d="M-125 1194l293 344h149l299 -346h-139l-235 256l-232 -254h-135zM176 0v1024h143v-1024h-143z" />
<glyph unicode="&#xef;" horiz-adv-x="485" d="M-76 1376q0 39 26.5 64.5t65.5 25.5q37 0 63.5 -25.5t26.5 -64.5t-26.5 -64.5t-63.5 -25.5q-39 0 -65.5 25.5t-26.5 64.5zM176 0v1024h143v-1024h-143zM383 1376q0 39 26.5 64.5t65.5 25.5q37 0 63.5 -25.5t26.5 -64.5t-26.5 -64.5t-63.5 -25.5q-39 0 -65.5 25.5 t-26.5 64.5z" />
<glyph unicode="&#xf0;" d="M150 377q-12 98 9 186t73.5 158t135.5 116t193 60q57 6 116.5 2t116 -24.5t104.5 -56.5t85 -93q-16 123 -56 227.5t-114 182.5l-172 -162l-82 88l162 153q-57 37 -128 63t-157 38l-14 117q240 -14 397 -125l152 143l84 -88l-144 -133q178 -186 222 -545q18 -145 3.5 -267 t-66.5 -213t-148.5 -148.5t-241.5 -75.5q-111 -12 -204 13t-161.5 79.5t-111.5 133.5t-53 171zM305 393q8 -70 39 -128t79 -98t113.5 -58.5t143.5 -8.5q70 8 128 41t98 84t58.5 114.5t10.5 133.5q-8 63 -38 121.5t-80 100.5t-119.5 63.5t-155.5 11.5q-80 -10 -136.5 -45 t-90 -87t-46 -115.5t-4.5 -129.5z" />
<glyph unicode="&#xf1;" horiz-adv-x="1191" d="M131 1257q12 55 32.5 109.5t50.5 95.5t70 66.5t91 25.5q63 0 111.5 -34.5t88 -76.5t76.5 -77t82 -35q37 0 67.5 21.5t53.5 53.5t37 68.5t20 67.5q18 -6 44 -10t44 -8q-25 -137 -88 -221t-168 -84q-68 0 -113.5 35.5t-82.5 77.5t-74 78t-86 36q-41 0 -69.5 -20.5 t-49 -52.5t-34 -68.5t-23.5 -69.5zM162 0v1024h143v-158q68 92 162 134t201 42q123 0 196.5 -35.5t112.5 -95t51 -136.5t12 -157v-618h-143v696q0 55 -22.5 96.5t-59.5 69t-84 40.5t-96 13q-80 0 -141.5 -25.5t-103.5 -68.5t-63.5 -99t-21.5 -118v-604h-143z" />
<glyph unicode="&#xf2;" d="M109 508q0 106 31.5 203.5t95 171t159.5 116.5t223 43q129 0 226.5 -43t161 -116.5t95.5 -171t32 -203.5t-32 -201.5t-95.5 -168t-160.5 -115.5t-227 -43q-127 0 -223 43t-159.5 115.5t-95 167.5t-31.5 202zM258 508q0 -78 21.5 -151.5t65.5 -130t112.5 -90.5t160.5 -34 q94 0 163 34t114 90.5t66.5 130t21.5 151.5t-21.5 151.5t-66.5 130t-113.5 91t-163.5 34.5q-92 0 -160.5 -34.5t-112.5 -91t-65.5 -130t-21.5 -151.5zM369 1563h170l237 -355h-133z" />
<glyph unicode="&#xf3;" d="M109 508q0 106 31.5 203.5t95 171t159.5 116.5t223 43q129 0 226.5 -43t161 -116.5t95.5 -171t32 -203.5t-32 -201.5t-95.5 -168t-160.5 -115.5t-227 -43q-127 0 -223 43t-159.5 115.5t-95 167.5t-31.5 202zM258 508q0 -78 21.5 -151.5t65.5 -130t112.5 -90.5t160.5 -34 q94 0 163 34t114 90.5t66.5 130t21.5 151.5t-21.5 151.5t-66.5 130t-113.5 91t-163.5 34.5q-92 0 -160.5 -34.5t-112.5 -91t-65.5 -130t-21.5 -151.5zM496 1208l237 355h170l-274 -355h-133z" />
<glyph unicode="&#xf4;" d="M109 508q0 106 31.5 203.5t95 171t159.5 116.5t223 43q129 0 226.5 -43t161 -116.5t95.5 -171t32 -203.5t-32 -201.5t-95.5 -168t-160.5 -115.5t-227 -43q-127 0 -223 43t-159.5 115.5t-95 167.5t-31.5 202zM246 1194l293 344h149l299 -346h-139l-236 256l-231 -254h-135 zM258 508q0 -78 21.5 -151.5t65.5 -130t112.5 -90.5t160.5 -34q94 0 163 34t114 90.5t66.5 130t21.5 151.5t-21.5 151.5t-66.5 130t-113.5 91t-163.5 34.5q-92 0 -160.5 -34.5t-112.5 -91t-65.5 -130t-21.5 -151.5z" />
<glyph unicode="&#xf5;" d="M109 508q0 106 31.5 203.5t95 171t159.5 116.5t223 43q129 0 226.5 -43t161 -116.5t95.5 -171t32 -203.5t-32 -201.5t-95.5 -168t-160.5 -115.5t-227 -43q-127 0 -223 43t-159.5 115.5t-95 167.5t-31.5 202zM199 1257q12 55 32.5 109.5t50 95.5t69.5 66.5t91 25.5 q63 0 111.5 -34.5t88.5 -76.5t77 -77t82 -35q37 0 67.5 21.5t53 53.5t37 68.5t20.5 67.5q18 -6 44 -10t44 -8q-25 -137 -88.5 -221t-167.5 -84q-68 0 -114 35.5t-82.5 77.5t-73.5 78t-86 36q-41 0 -70 -20.5t-49.5 -52.5t-33.5 -68.5t-23 -69.5zM258 508q0 -78 21.5 -151.5 t65.5 -130t112.5 -90.5t160.5 -34q94 0 163 34t114 90.5t66.5 130t21.5 151.5t-21.5 151.5t-66.5 130t-113.5 91t-163.5 34.5q-92 0 -160.5 -34.5t-112.5 -91t-65.5 -130t-21.5 -151.5z" />
<glyph unicode="&#xf6;" d="M109 508q0 106 31.5 203.5t95 171t159.5 116.5t223 43q129 0 226.5 -43t161 -116.5t95.5 -171t32 -203.5t-32 -201.5t-95.5 -168t-160.5 -115.5t-227 -43q-127 0 -223 43t-159.5 115.5t-95 167.5t-31.5 202zM258 508q0 -78 21.5 -151.5t65.5 -130t112.5 -90.5t160.5 -34 q94 0 163 34t114 90.5t66.5 130t21.5 151.5t-21.5 151.5t-66.5 130t-113.5 91t-163.5 34.5q-92 0 -160.5 -34.5t-112.5 -91t-65.5 -130t-21.5 -151.5zM287 1376q0 39 26.5 64.5t65.5 25.5q37 0 63.5 -25.5t26.5 -64.5t-26.5 -64.5t-63.5 -25.5q-39 0 -65.5 25.5t-26.5 64.5z M745 1376q0 39 27 64.5t66 25.5q37 0 63.5 -25.5t26.5 -64.5t-27 -64.5t-63 -25.5q-39 0 -66 25.5t-27 64.5z" />
<glyph unicode="&#xf7;" horiz-adv-x="1187" d="M100 537v118h1004v-118h-1004zM528 242q0 39 27 64.5t66 25.5q37 0 63.5 -25.5t26.5 -64.5t-27 -64.5t-63 -25.5q-39 0 -66 25.5t-27 64.5zM528 940q0 39 27 64.5t66 25.5q37 0 63.5 -25.5t26.5 -64.5t-27 -64.5t-63 -25.5q-39 0 -66 25.5t-27 64.5z" />
<glyph unicode="&#xf8;" d="M109 508q0 106 31.5 203.5t95 171t159.5 116.5t223 43q80 0 148 -17t123 -48l94 131l98 -72l-96 -133q74 -76 111 -177t37 -218q0 -106 -32 -201.5t-95.5 -168t-160.5 -115.5t-227 -43q-78 0 -142 15t-118 44l-73 -102l-99 69l76 105q-78 74 -115.5 177t-37.5 220z M258 508q0 -80 21.5 -152.5t66.5 -130.5l463 641q-39 23 -86 36t-105 13q-92 0 -160.5 -34.5t-112.5 -91t-65.5 -130t-21.5 -151.5zM436 147q78 -45 182 -45q94 0 163 34t114 90.5t66.5 130t21.5 151.5q0 76 -21.5 147.5t-62.5 128.5z" />
<glyph unicode="&#xf9;" horiz-adv-x="1191" d="M162 412v612h147v-688q0 -53 21.5 -95t57.5 -70t82 -42t95 -14q80 0 141.5 26.5t104.5 69.5t64.5 99.5t21.5 115.5v598h143v-784v-240h-147v166q-66 -94 -159 -134t-202 -40q-121 0 -194.5 34.5t-112.5 93t-51 134.5t-12 158zM332 1563h170l237 -355h-133z" />
<glyph unicode="&#xfa;" horiz-adv-x="1191" d="M162 412v612h147v-688q0 -53 21.5 -95t57.5 -70t82 -42t95 -14q80 0 141.5 26.5t104.5 69.5t64.5 99.5t21.5 115.5v598h143v-784v-240h-147v166q-66 -94 -159 -134t-202 -40q-121 0 -194.5 34.5t-112.5 93t-51 134.5t-12 158zM434 1208l238 355h170l-275 -355h-133z" />
<glyph unicode="&#xfb;" horiz-adv-x="1191" d="M162 412v612h147v-688q0 -53 21.5 -95t57.5 -70t82 -42t95 -14q80 0 141.5 26.5t104.5 69.5t64.5 99.5t21.5 115.5v598h143v-784v-240h-147v166q-66 -94 -159 -134t-202 -40q-121 0 -194.5 34.5t-112.5 93t-51 134.5t-12 158zM215 1194l293 344h149l299 -346h-139 l-235 256l-232 -254h-135z" />
<glyph unicode="&#xfc;" horiz-adv-x="1191" d="M162 412v612h147v-688q0 -53 21.5 -95t57.5 -70t82 -42t95 -14q80 0 141.5 26.5t104.5 69.5t64.5 99.5t21.5 115.5v598h143v-784v-240h-147v166q-66 -94 -159 -134t-202 -40q-121 0 -194.5 34.5t-112.5 93t-51 134.5t-12 158zM287 1376q0 39 26.5 64.5t65.5 25.5 q37 0 63.5 -25.5t26.5 -64.5t-26.5 -64.5t-63.5 -25.5q-39 0 -65.5 25.5t-26.5 64.5zM745 1376q0 39 27 64.5t66 25.5q37 0 63.5 -25.5t26.5 -64.5t-27 -64.5t-63 -25.5q-39 0 -66 25.5t-27 64.5z" />
<glyph unicode="&#xfd;" horiz-adv-x="1013" d="M-27 1024h160l330 -829l332 829h147l-608 -1534h-146l203 530zM373 1208l237 355h170l-274 -355h-133z" />
<glyph unicode="&#xfe;" horiz-adv-x="1206" d="M147 -514v2050h142v-666q31 37 71.5 69t88 55.5t99.5 35.5t103 12q119 0 205 -43t141.5 -116.5t82 -171t26.5 -203.5t-26.5 -202.5t-82 -170.5t-140.5 -117t-204 -43q-113 0 -206 47.5t-158 129.5v-666h-142zM289 524q0 -25 10 -55q8 -78 31.5 -144.5t65.5 -116.5 t102.5 -79t142.5 -29q88 0 148.5 35t97.5 92.5t53 132t16 152.5q0 80 -18 152.5t-58 129t-101.5 89t-149.5 32.5t-151.5 -31.5t-105.5 -85t-61.5 -124t-21.5 -150.5z" />
<glyph unicode="&#xff;" horiz-adv-x="1013" d="M-27 1024h160l330 -829l332 829h147l-608 -1534h-146l203 530zM168 1376q0 39 26.5 64.5t65.5 25.5q37 0 63.5 -25.5t26.5 -64.5t-26.5 -64.5t-63.5 -25.5q-39 0 -65.5 25.5t-26.5 64.5zM627 1376q0 39 26.5 64.5t65.5 25.5q37 0 63.5 -25.5t26.5 -64.5t-26.5 -64.5 t-63.5 -25.5q-39 0 -65.5 25.5t-26.5 64.5z" />
<glyph unicode="&#x152;" horiz-adv-x="1765" d="M100 731q0 143 32 277.5t95.5 238t160.5 166t228 62.5q94 0 171 -38t133 -110v109h729v-131h-586v-498h559v-131h-559v-545h614v-131h-757v137q-55 -82 -133 -128t-171 -46q-129 0 -226 55.5t-161.5 156.5t-96.5 242.5t-32 313.5zM256 729q0 -145 18.5 -263t60.5 -201 t110.5 -128t170.5 -45q51 0 99.5 22.5t88.5 61.5t69.5 93.5t46.5 115.5v674q-27 147 -110 215.5t-194 68.5q-106 0 -175.5 -51t-110.5 -137t-57.5 -196.5t-16.5 -229.5z" />
<glyph unicode="&#x153;" horiz-adv-x="1675" d="M92 522q0 106 26.5 201.5t79 166.5t128 112.5t176.5 41.5q100 0 176 -46t123 -126q51 78 129 124t182 46q102 0 179 -43t129.5 -118.5t78 -178t25.5 -221.5h-670q2 -74 17.5 -143.5t47 -121.5t84 -84t127.5 -32q98 0 155.5 56.5t82.5 160.5h143q-39 -168 -143 -254 t-262 -86q-106 0 -184 48.5t-129 130.5q-45 -88 -118 -134.5t-183 -46.5q-102 0 -177 48.5t-124.5 125t-74 175t-24.5 198.5zM246 522q0 -80 14 -156.5t43 -135t75 -94.5t107 -36q98 0 159 60.5t81 154.5q-27 92 -27 205q0 53 6.5 103.5t22.5 97.5q-16 106 -77.5 151.5 t-162.5 45.5q-63 0 -108 -32t-75 -86.5t-44 -126t-14 -151.5zM856 598h516q-4 68 -19.5 126t-46 100t-78.5 66.5t-118 24.5q-63 0 -109.5 -26.5t-77 -70.5t-47 -101.5t-20.5 -118.5z" />
<glyph unicode="&#x178;" horiz-adv-x="1320" d="M8 1436h187l475 -715l471 715h166l-572 -844v-592h-151v592zM340 1618q0 39 26.5 64.5t65.5 25.5q37 0 63.5 -25.5t26.5 -64.5t-26.5 -64.5t-63.5 -25.5q-39 0 -65.5 25.5t-26.5 64.5zM799 1618q0 39 26.5 64.5t65.5 25.5q37 0 63.5 -25.5t26.5 -64.5t-26.5 -64.5 t-63.5 -25.5q-39 0 -65.5 25.5t-26.5 64.5z" />
<glyph unicode="&#x2c6;" horiz-adv-x="897" d="M72 1194l293 344h149l299 -346h-139l-236 256l-231 -254h-135z" />
<glyph unicode="&#x2dc;" horiz-adv-x="1067" d="M106 1257q12 55 33 109.5t50.5 95.5t69.5 66.5t91 25.5q63 0 111.5 -34.5t88.5 -76.5t77 -77t82 -35q37 0 67.5 21.5t53 53.5t37 68.5t20.5 67.5q18 -6 43.5 -10t44.5 -8q-25 -137 -88.5 -221t-167.5 -84q-68 0 -114 35.5t-83 77.5t-73.5 78t-86.5 36q-41 0 -69.5 -20.5 t-49 -52.5t-33.5 -68.5t-24 -69.5z" />
<glyph unicode="&#x2000;" horiz-adv-x="967" />
<glyph unicode="&#x2001;" horiz-adv-x="1935" />
<glyph unicode="&#x2002;" horiz-adv-x="967" />
<glyph unicode="&#x2003;" horiz-adv-x="1935" />
<glyph unicode="&#x2004;" horiz-adv-x="645" />
<glyph unicode="&#x2005;" horiz-adv-x="483" />
<glyph unicode="&#x2006;" horiz-adv-x="322" />
<glyph unicode="&#x2007;" horiz-adv-x="322" />
<glyph unicode="&#x2008;" horiz-adv-x="241" />
<glyph unicode="&#x2009;" horiz-adv-x="387" />
<glyph unicode="&#x200a;" horiz-adv-x="107" />
<glyph unicode="&#x2010;" horiz-adv-x="651" d="M61 494v139h539v-139h-539z" />
<glyph unicode="&#x2011;" horiz-adv-x="651" d="M61 494v139h539v-139h-539z" />
<glyph unicode="&#x2012;" horiz-adv-x="651" d="M61 494v139h539v-139h-539z" />
<glyph unicode="&#x2013;" horiz-adv-x="1234" d="M45 494v139h1153v-139h-1153z" />
<glyph unicode="&#x2014;" horiz-adv-x="2064" d="M45 494v139h1983v-139h-1983z" />
<glyph unicode="&#x2018;" horiz-adv-x="557" d="M174 1159q6 31 16.5 74t33 88t61.5 88t102 72l33 -72q-33 -16 -58 -39q-23 -23 -41 -55.5t-22 -81.5q43 -6 71.5 -38t28.5 -75q0 -47 -34.5 -80.5t-81.5 -33.5q-57 0 -90 44t-19 109z" />
<glyph unicode="&#x2019;" horiz-adv-x="557" d="M141 1059q33 14 58 39q23 20 41 54t22 83q-43 6 -71.5 38t-28.5 75q0 47 34.5 80.5t82.5 33.5q57 0 89.5 -44t18.5 -109q-6 -31 -16.5 -74t-33 -88t-61 -88t-102.5 -72z" />
<glyph unicode="&#x201a;" horiz-adv-x="559" d="M141 -199q33 14 58 39q23 20 41 54t22 83q-43 6 -71.5 38t-28.5 75q0 47 34.5 81t82.5 34q57 0 89.5 -44t18.5 -110q-6 -31 -16.5 -74t-33 -88t-61 -88t-102.5 -71z" />
<glyph unicode="&#x201c;" horiz-adv-x="1081" d="M174 1159q6 31 16.5 74t33 88t61.5 88t102 72l33 -72q-33 -16 -58 -39q-23 -23 -41 -55.5t-22 -81.5q43 -6 71.5 -38t28.5 -75q0 -47 -34.5 -80.5t-81.5 -33.5q-57 0 -90 44t-19 109zM530 1159q6 31 16.5 74t33 88t61.5 88t102 72l33 -72q-33 -16 -57 -39 q-23 -23 -41.5 -55.5t-22.5 -81.5q43 -6 72 -38t29 -75q0 -47 -35 -80.5t-82 -33.5q-57 0 -90 44t-19 109z" />
<glyph unicode="&#x201d;" horiz-adv-x="1081" d="M166 1065q33 14 57 39q23 20 41.5 54t22.5 83q-43 6 -72 38t-29 75q0 47 35 80.5t82 33.5q57 0 90 -44t19 -109q-6 -31 -16.5 -74t-33 -88t-61.5 -88t-102 -72zM522 1065q33 14 58 39q23 20 41 54t22 83q-43 6 -71.5 38t-28.5 75q0 47 34.5 80.5t81.5 33.5q57 0 90 -44 t19 -109q-6 -31 -16.5 -74t-33 -88t-61.5 -88t-102 -72z" />
<glyph unicode="&#x201e;" horiz-adv-x="1081" d="M166 -182q33 14 57 39q23 20 41.5 54t22.5 83q-43 6 -72 37.5t-29 74.5q0 47 35 81t82 34q57 0 90 -44t19 -109q-6 -31 -16.5 -74t-33 -88t-61.5 -88t-102 -72zM522 -182q33 14 58 39q23 20 41 54t22 83q-43 6 -71.5 37.5t-28.5 74.5q0 47 34.5 81t81.5 34q57 0 90 -44 t19 -109q-6 -31 -16.5 -74t-33 -88t-61.5 -88t-102 -72z" />
<glyph unicode="&#x2022;" horiz-adv-x="976" d="M225 643q0 51 19.5 95t52.5 77t77 52.5t95 19.5t95 -19.5t77 -52.5t52.5 -77t19.5 -95t-19.5 -95t-52.5 -77t-77 -52.5t-95 -19.5t-95 19.5t-77 52.5t-52.5 77t-19.5 95z" />
<glyph unicode="&#x2026;" horiz-adv-x="1398" d="M162 90q0 47 34.5 81t82.5 34q47 0 80.5 -34t33.5 -81t-33.5 -81t-80.5 -34t-82 34t-35 81zM608 90q0 47 35 81t82 34t81 -34t34 -81t-34 -81t-81 -34t-82 34t-35 81zM1055 90q0 47 34.5 81t81.5 34t81 -34t34 -81t-33.5 -81t-81.5 -34q-47 0 -81.5 34t-34.5 81z" />
<glyph unicode="&#x202f;" horiz-adv-x="387" />
<glyph unicode="&#x205f;" horiz-adv-x="483" />
<glyph unicode="&#x20ac;" horiz-adv-x="1460" d="M6 432v119h232q-6 43 -8.5 88t-2.5 92q0 61 6 123h-227v115h248q25 104 74 196t122.5 161t173 109t222.5 40q98 0 186 -30t155.5 -85t111.5 -134t59 -177h-152q-29 154 -126 224t-234 70q-94 0 -167 -28.5t-126 -79.5t-89 -118.5t-56 -147.5h391v-115h-412 q-6 -61 -6 -125q0 -47 2 -92t8 -86h408v-119h-383q47 -162 151.5 -251t280.5 -89q70 0 130 27.5t109.5 75t83 112t48.5 135.5h149q-16 -104 -63.5 -192t-116 -151.5t-155.5 -99.5t-185 -36q-242 0 -387.5 126t-200.5 343h-254z" />
<glyph unicode="&#x25fc;" horiz-adv-x="1024" d="M0 0v1024h1024v-1024h-1024z" />
</font>
</defs>
</svg>
