<svg width="390" height="136" viewBox="0 0 390 136" fill="none" xmlns="http://www.w3.org/2000/svg">
<path fill-rule="evenodd" clip-rule="evenodd" d="M299.1 1.01015C294.593 0.0882632 290.907 0.773818 287.976 2.77474C285.058 4.76651 282.95 8.01911 281.499 12.1159C278.6 20.2986 278.257 32.0354 279.49 44.5366C280.223 51.9629 281.514 59.6817 283.171 67.1215C260.629 84.0006 219.473 107.059 169.276 121.357C119.059 135.66 59.8287 141.185 1.14783 123.022L0.852173 123.978C59.7712 142.214 119.208 136.657 169.549 122.318C219.603 108.062 260.699 85.1151 283.412 68.1898C284.491 72.9151 285.714 77.516 287.033 81.8441C290.509 93.256 294.663 102.839 298.597 107.797C314.143 130.612 352.445 147.281 385.179 126.384C385.684 126.77 386.315 127 387 127C388.657 127 390 125.657 390 124C390 122.343 388.657 121 387 121C385.343 121 384 122.343 384 124C384 124.605 384.179 125.168 384.487 125.639C352.336 146.027 314.704 129.678 299.413 107.219L299.403 107.203L299.391 107.189C295.579 102.392 291.463 92.9578 287.989 81.5528C286.63 77.0894 285.372 72.3345 284.27 67.4528C294.138 57.9278 306.593 43.4026 312.345 30.2757C315.26 23.6255 316.498 17.2352 314.69 12.0144C312.865 6.74759 308.001 2.83079 299.1 1.01015ZM311.43 29.8743C305.839 42.6305 293.776 56.8121 284.015 66.3074C282.43 59.0895 281.194 51.6243 280.485 44.4384C279.256 31.9772 279.618 20.4201 282.442 12.4498C283.851 8.46997 285.858 5.43117 288.54 3.60067C291.208 1.77932 294.607 1.11175 298.9 1.98987C307.599 3.76922 312.077 7.52743 313.745 12.3418C315.429 17.2023 314.311 23.2995 311.43 29.8743Z" fill="#EEEEEE"/>
</svg>
