<svg width="404" height="841" viewBox="0 0 404 841" fill="none" xmlns="http://www.w3.org/2000/svg">
<path d="M354.965 0H48.6618C21.7866 0 0 21.7866 0 48.6618V791.921C0 818.796 21.7866 840.583 48.6618 840.583H354.965C381.84 840.583 403.626 818.796 403.626 791.921V48.6618C403.626 21.7866 381.84 0 354.965 0Z" fill="#222327"/>
<path d="M356.965 15C340.055 15 311.951 15 310.284 15C306.235 15 303.615 18.0021 302.663 23.4058C299.447 42.619 288.968 43.94 285.872 43.94C283.252 43.94 119.867 43.94 117.128 43.94C114.032 43.94 103.433 42.499 100.337 23.4058C99.5032 18.0021 96.8833 15 92.7153 15C90.929 15 62.944 15 46.0339 15C29.1238 15 14 33.0124 14 50.1843C14 67.3561 14 773.803 14 794.217C14 815.472 35.4353 827 45.6767 827C51.2737 827 351.726 827 357.323 827C367.564 827 389 815.472 389 794.217C389 773.803 389 59.911 389 50.1843C389.118 33.0124 373.875 15 356.965 15Z" fill="white"/>
</svg>
