<svg width="441" height="136" viewBox="0 0 441 136" fill="none" xmlns="http://www.w3.org/2000/svg">
<path d="M333.28 99.784H334.912L341.152 108.92V99.784H342.576V111H340.88L338.256 107.16L334.704 101.928V111H333.28V99.784ZM346.21 107.384C346.242 107.725 346.316 108.045 346.434 108.344C346.551 108.643 346.716 108.909 346.93 109.144C347.143 109.379 347.404 109.565 347.714 109.704C348.034 109.832 348.407 109.896 348.834 109.896C349.388 109.896 349.858 109.763 350.242 109.496C350.636 109.229 350.908 108.835 351.058 108.312H352.514C352.236 109.251 351.762 109.965 351.09 110.456C350.428 110.936 349.602 111.176 348.61 111.176C347.98 111.176 347.426 111.064 346.946 110.84C346.466 110.605 346.06 110.296 345.73 109.912C345.41 109.517 345.164 109.064 344.993 108.552C344.834 108.04 344.754 107.501 344.754 106.936C344.754 106.403 344.839 105.891 345.01 105.4C345.18 104.909 345.431 104.477 345.762 104.104C346.092 103.72 346.498 103.416 346.978 103.192C347.458 102.968 348.012 102.856 348.641 102.856C349.292 102.856 349.858 102.973 350.338 103.208C350.828 103.432 351.234 103.752 351.554 104.168C351.884 104.573 352.13 105.053 352.29 105.608C352.46 106.152 352.546 106.744 352.546 107.384H346.21ZM351.058 106.2C350.994 105.581 350.764 105.085 350.37 104.712C349.986 104.339 349.404 104.152 348.626 104.152C348.284 104.152 347.975 104.211 347.698 104.328C347.42 104.435 347.18 104.584 346.978 104.776C346.775 104.957 346.61 105.171 346.482 105.416C346.364 105.661 346.29 105.923 346.258 106.2H351.058ZM357.244 109.048C357.596 108.045 357.958 107.037 358.332 106.024C358.716 105 359.089 103.992 359.452 103H360.876L361.372 104.344C361.649 105.123 361.926 105.907 362.204 106.696C362.481 107.475 362.769 108.264 363.068 109.064C363.42 108.061 363.772 107.053 364.124 106.04C364.476 105.016 364.822 104.003 365.164 103H366.652L363.66 111H362.412L360.14 104.808C359.766 105.843 359.382 106.877 358.988 107.912C358.604 108.947 358.225 109.976 357.852 111H356.54L355.484 108.072C355.345 107.699 355.196 107.293 355.036 106.856C354.876 106.419 354.71 105.976 354.54 105.528C354.38 105.08 354.22 104.643 354.06 104.216C353.9 103.779 353.75 103.373 353.612 103H355.084L357.244 109.048ZM376.305 106.392C375.58 105.325 374.822 104.227 374.033 103.096C373.254 101.955 372.508 100.851 371.793 99.784H373.585L377.105 105.096L380.609 99.784H382.241L377.761 106.392V111H376.305V106.392ZM388.469 107.032C388.469 106.669 388.415 106.312 388.309 105.96C388.213 105.608 388.058 105.299 387.845 105.032C387.631 104.755 387.359 104.536 387.029 104.376C386.709 104.205 386.325 104.12 385.877 104.12C385.439 104.12 385.061 104.205 384.741 104.376C384.421 104.536 384.154 104.755 383.941 105.032C383.738 105.299 383.583 105.608 383.477 105.96C383.381 106.312 383.333 106.669 383.333 107.032C383.333 107.405 383.381 107.768 383.477 108.12C383.583 108.461 383.738 108.771 383.941 109.048C384.154 109.315 384.421 109.528 384.741 109.688C385.061 109.848 385.439 109.928 385.877 109.928C386.325 109.928 386.709 109.848 387.029 109.688C387.359 109.528 387.631 109.315 387.845 109.048C388.058 108.771 388.213 108.461 388.309 108.12C388.415 107.768 388.469 107.405 388.469 107.032ZM385.877 102.856C386.549 102.856 387.135 102.968 387.637 103.192C388.149 103.416 388.57 103.72 388.901 104.104C389.231 104.488 389.477 104.936 389.637 105.448C389.807 105.949 389.893 106.477 389.893 107.032C389.893 107.576 389.807 108.099 389.637 108.6C389.477 109.101 389.231 109.544 388.901 109.928C388.57 110.301 388.149 110.6 387.637 110.824C387.135 111.048 386.549 111.16 385.877 111.16C385.215 111.16 384.634 111.048 384.133 110.824C383.631 110.6 383.215 110.301 382.885 109.928C382.554 109.544 382.303 109.101 382.133 108.6C381.973 108.099 381.893 107.576 381.893 107.032C381.893 106.477 381.973 105.949 382.133 105.448C382.303 104.936 382.554 104.488 382.885 104.104C383.215 103.72 383.631 103.416 384.133 103.192C384.634 102.968 385.215 102.856 385.877 102.856ZM393.246 111H391.886V103H393.23V103.944C393.4 103.603 393.651 103.336 393.982 103.144C394.312 102.952 394.664 102.856 395.038 102.856C395.208 102.856 395.374 102.861 395.534 102.872C395.704 102.883 395.88 102.904 396.062 102.936V104.36C395.891 104.307 395.736 104.269 395.598 104.248C395.47 104.216 395.374 104.2 395.31 104.2C394.979 104.2 394.686 104.253 394.43 104.36C394.174 104.467 393.955 104.616 393.774 104.808C393.603 104.989 393.47 105.203 393.374 105.448C393.288 105.693 393.246 105.955 393.246 106.232V111ZM399.467 106.296C400.086 105.752 400.71 105.208 401.339 104.664C401.979 104.12 402.609 103.576 403.227 103.032H405.115L401.291 106.424C401.921 107.16 402.577 107.923 403.259 108.712C403.942 109.501 404.598 110.264 405.227 111H403.435L400.139 107.32L399.467 107.896V111H398.075V99.16H399.467V106.296ZM419.734 103.032C419.563 102.264 419.205 101.699 418.661 101.336C418.128 100.973 417.494 100.792 416.758 100.792C416.075 100.792 415.488 100.92 414.998 101.176C414.518 101.421 414.118 101.752 413.798 102.168C413.488 102.584 413.259 103.064 413.11 103.608C412.971 104.152 412.902 104.717 412.902 105.304C412.902 106.019 412.976 106.664 413.126 107.24C413.286 107.816 413.526 108.312 413.846 108.728C414.166 109.133 414.566 109.448 415.046 109.672C415.536 109.885 416.112 109.992 416.774 109.992C417.136 109.992 417.483 109.923 417.814 109.784C418.155 109.645 418.459 109.459 418.726 109.224C419.003 108.979 419.238 108.696 419.43 108.376C419.622 108.045 419.76 107.699 419.845 107.336H421.35C421.254 107.912 421.067 108.44 420.79 108.92C420.512 109.4 420.166 109.816 419.75 110.168C419.344 110.52 418.886 110.797 418.374 111C417.872 111.192 417.339 111.288 416.774 111.288C415.867 111.288 415.078 111.144 414.406 110.856C413.734 110.568 413.174 110.163 412.726 109.64C412.278 109.107 411.942 108.472 411.718 107.736C411.504 107 411.398 106.184 411.398 105.288C411.398 104.541 411.504 103.821 411.718 103.128C411.942 102.435 412.272 101.821 412.71 101.288C413.158 100.744 413.718 100.312 414.39 99.992C415.062 99.6613 415.851 99.496 416.758 99.496C417.344 99.496 417.888 99.5813 418.39 99.752C418.902 99.912 419.355 100.147 419.75 100.456C420.155 100.755 420.486 101.123 420.742 101.56C421.008 101.997 421.184 102.488 421.27 103.032H419.734ZM424.78 103V111H423.388V103H424.78ZM423.18 100.28C423.18 100.024 423.265 99.8107 423.436 99.64C423.606 99.4693 423.82 99.384 424.076 99.384C424.321 99.384 424.529 99.4693 424.7 99.64C424.87 99.8107 424.956 100.024 424.956 100.28C424.956 100.536 424.87 100.749 424.7 100.92C424.529 101.091 424.321 101.176 424.076 101.176C423.82 101.176 423.606 101.091 423.436 100.92C423.265 100.749 423.18 100.536 423.18 100.28ZM428.105 104.264H426.585V103.032H428.105V100.824H429.465V103.032H431.145V104.264H429.465V109.144C429.465 109.421 429.524 109.624 429.641 109.752C429.769 109.88 430.02 109.944 430.393 109.944C430.51 109.944 430.649 109.928 430.809 109.896C430.969 109.864 431.134 109.821 431.305 109.768V110.968C431.124 111.021 430.926 111.069 430.713 111.112C430.51 111.155 430.313 111.176 430.121 111.176C429.662 111.176 429.3 111.128 429.033 111.032C428.766 110.947 428.564 110.824 428.425 110.664C428.286 110.493 428.196 110.296 428.153 110.072C428.121 109.837 428.105 109.576 428.105 109.288V104.264ZM434.012 103L436.38 108.968L438.764 103H440.204L435.516 114.824H434.092L435.66 110.696L432.46 103H434.012Z" fill="#EEEEEE"/>
<path fill-rule="evenodd" clip-rule="evenodd" d="M299.1 1.01015C294.593 0.0882632 290.907 0.773818 287.976 2.77474C285.058 4.76651 282.95 8.01911 281.499 12.1159C278.6 20.2986 278.257 32.0354 279.49 44.5366C280.223 51.9629 281.514 59.6817 283.171 67.1215C260.629 84.0006 219.473 107.059 169.276 121.357C119.059 135.66 59.8287 141.185 1.14783 123.022L0.852173 123.978C59.7712 142.214 119.208 136.657 169.549 122.318C219.603 108.062 260.699 85.1151 283.412 68.1898C284.491 72.9151 285.714 77.516 287.033 81.8441C290.509 93.256 294.663 102.839 298.597 107.797C314.143 130.612 352.445 147.281 385.179 126.384C385.684 126.77 386.315 127 387 127C388.657 127 390 125.657 390 124C390 122.343 388.657 121 387 121C385.343 121 384 122.343 384 124C384 124.605 384.179 125.168 384.487 125.639C352.336 146.027 314.704 129.678 299.413 107.219L299.403 107.203L299.391 107.189C295.579 102.392 291.463 92.9578 287.989 81.5528C286.63 77.0894 285.372 72.3345 284.27 67.4528C294.138 57.9278 306.593 43.4026 312.345 30.2757C315.26 23.6255 316.498 17.2352 314.69 12.0144C312.865 6.74759 308.001 2.83079 299.1 1.01015ZM311.43 29.8743C305.839 42.6305 293.776 56.8121 284.015 66.3074C282.43 59.0895 281.194 51.6243 280.485 44.4384C279.256 31.9772 279.618 20.4201 282.442 12.4498C283.851 8.46997 285.858 5.43117 288.54 3.60067C291.208 1.77932 294.607 1.11175 298.9 1.98987C307.599 3.76922 312.077 7.52743 313.745 12.3418C315.429 17.2023 314.311 23.2995 311.43 29.8743Z" fill="#EEEEEE"/>
</svg>
